<svg width="163" height="26" viewBox="0 0 163 26" fill="none" xmlns="http://www.w3.org/2000/svg">
<g clip-path="url(#clip0_201_5062)">
<path fill-rule="evenodd" clip-rule="evenodd" d="M137.49 7.42857H142.009V11.1429H137.276C136.376 11.1429 134.748 11.8857 134.727 13.9395V26H129.265V13.5025C129.265 12.126 129.715 10.7933 130.55 9.63529C131.278 8.63025 132.242 7.99664 133.463 7.69076C134.256 7.51597 135.755 7.42857 137.49 7.42857ZM118.341 7.42857V26H112.879V7.42857H118.341ZM59.2884 7.42857C61.0234 7.42857 62.0515 7.58151 62.9083 7.88739C63.765 8.17143 64.579 8.63025 65.1787 9.22017C65.9712 10.0286 66.5067 10.7714 66.9137 11.7765C67.1707 12.716 67.4063 12.9345 67.4063 15.4689V26H53.9765C52.4771 26 51.192 25.6723 50.1638 24.6672C49.1143 23.6622 48.6002 21.805 48.6002 20.2538C48.6002 18.6151 49.2 17.2168 50.1638 16.1681C51.1277 15.0975 51.9631 14.879 53.3981 14.879H62.2657L62.2443 13.8084C62.3299 12.8034 61.2376 11.1647 59.6525 11.1429H57.1893L50.0782 11.1647V7.42857H59.2884ZM32.7715 0V7.42857H39.0901C41.232 7.51597 43.0527 8.45546 44.4663 10.3563C45.7943 12.1261 46.4583 14.2235 46.4583 16.6487C46.4583 19.1832 45.7943 21.3462 44.4878 23.2034C43.0741 25.1916 41.2535 26 39.0259 26H27.3096V0H32.7715ZM96.4936 0V16.758L103.648 7.53782H110.138L102.448 16.7798L110.159 26.0218H103.626L96.515 16.7798V26H91.0317V0H96.4936ZM80.6434 7.42857C82.314 7.42857 83.5135 7.51597 84.2632 7.69076C85.4412 7.99664 86.3623 8.63025 87.0691 9.63529C87.883 10.7933 88.29 12.0605 88.29 13.437L88.3114 26H82.8495L82.8709 14.0924C82.8709 11.0336 79.8294 11.121 79.8294 11.121H75.567V25.9782L70.1051 25.9563V7.42857H80.6434ZM150.256 7.42857L150.234 19.3361C150.234 22.395 153.276 22.3076 153.276 22.3076H157.538V7.42857L163 7.45042V26H152.44C150.77 26 149.57 25.9126 148.821 25.7378C147.643 25.4319 146.722 24.7983 146.015 23.7933C145.201 22.6353 144.794 21.3681 144.794 19.9916V7.42857H150.256ZM37.2267 11.1429H32.75V22.2857H37.4623C38.6617 22.2857 39.6256 21.7176 40.3539 20.6252C41.1035 19.5328 41.4677 18.2218 41.4677 16.7798C41.4677 15.2941 41.0821 13.9832 40.2682 12.8471C39.4543 11.7109 38.4475 11.1429 37.2267 11.1429ZM62.18 18.5714L55.1974 18.5933C55.1974 18.5933 54.2978 18.6151 53.8265 18.9866C53.3767 19.3798 53.0983 19.9042 53.0983 20.5378C53.0983 21.1059 53.3767 21.5866 53.8051 21.9361C54.2549 22.3076 54.5976 22.2639 55.1545 22.2639H62.2229L62.18 18.5714Z" fill="#162136"/>
<path d="M118.341 0H112.879V5.57143H118.341V0Z" fill="#039BE5"/>
<path fill-rule="evenodd" clip-rule="evenodd" d="M121.062 20.4287H126.523V26.0001H121.062V20.4287Z" fill="#F48100"/>
<path d="M21.8474 0H11.8232V5.57143H21.8474V0Z" fill="#039BE5"/>
<path fill-rule="evenodd" clip-rule="evenodd" d="M6.38281 10.2251H21.8475V15.7965H6.38281V10.2251Z" fill="#1BAF5D"/>
<path fill-rule="evenodd" clip-rule="evenodd" d="M0 20.4287H21.8476V26.0001H0V20.4287Z" fill="#F48100"/>
</g>
<defs>
<clipPath id="clip0_201_5062">
<rect width="163" height="26" fill="white"/>
</clipPath>
</defs>
</svg>
