<svg width="44" height="45" viewBox="0 0 44 45" fill="none" xmlns="http://www.w3.org/2000/svg">
<path d="M29.0324 29.977C28.5529 30.251 28.3863 30.8619 28.6603 31.3414C28.9343 31.8209 29.5452 31.9875 30.0247 31.7135L29.0324 29.977ZM38.494 25.7222L38.9901 26.5904L38.494 25.7222ZM41.5274 30.9127L41.0312 30.0444L41.0308 30.0447L41.5274 30.9127ZM28.45 38.3951L28.9357 39.2693L28.9467 39.263L28.45 38.3951ZM14.429 39.541L14.9328 40.4048C14.9501 40.3947 14.967 40.3841 14.9837 40.3731L14.429 39.541ZM11.4984 40.0928C11.0213 40.3711 10.8602 40.9834 11.1385 41.4605C11.4167 41.9375 12.0291 42.0987 12.5061 41.8204L11.4984 40.0928ZM18.7431 31.1934C18.1909 31.1934 17.7431 31.6411 17.7431 32.1934C17.7431 32.7457 18.1909 33.1934 18.7431 33.1934V31.1934ZM13.4178 26.7333L13.9348 27.5893C13.9476 27.5816 13.9601 27.5736 13.9725 27.5653L13.4178 26.7333ZM6.09253 29.9893C5.61978 30.2748 5.468 30.8895 5.75352 31.3622C6.03905 31.835 6.65375 31.9868 7.1265 31.7012L6.09253 29.9893ZM4.58725 29.4971L5.43274 28.9631C5.14258 28.5037 4.53868 28.36 4.07275 28.6396L4.58725 29.4971ZM12.6763 42.3048L13.231 43.1368C13.6826 42.8358 13.8116 42.2296 13.5218 41.7708L12.6763 42.3048ZM26.4486 25.1779C25.9246 25.3526 25.6415 25.9189 25.8161 26.4428C25.9908 26.9668 26.5571 27.2499 27.081 27.0753L26.4486 25.1779ZM32.9664 18.7116L33.9172 19.0214C34.0168 18.7159 33.9635 18.3812 33.7739 18.1217C33.5844 17.8623 33.2817 17.7097 32.9604 17.7116L32.9664 18.7116ZM21.8644 26.2629C21.9397 26.8101 22.4443 27.1926 22.9914 27.1173C23.5385 27.042 23.921 26.5374 23.8457 25.9903L21.8644 26.2629ZM21.4967 26.4267C21.6625 26.9536 22.2239 27.2463 22.7507 27.0805C23.2776 26.9148 23.5703 26.3533 23.4045 25.8265L21.4967 26.4267ZM11.3281 20.7339L11.2626 19.736C10.958 19.7561 10.6792 19.9141 10.5056 20.1652C10.332 20.4163 10.2826 20.733 10.3715 21.0251L11.3281 20.7339ZM13.5174 26.9586C13.8652 27.3876 14.495 27.4534 14.9239 27.1056C15.3529 26.7578 15.4187 26.128 15.0709 25.699L13.5174 26.9586ZM21.7877 24.7784C21.7877 25.3307 22.2354 25.7784 22.7877 25.7784C23.34 25.7784 23.7877 25.3307 23.7877 24.7784H21.7877ZM20.9857 12.1976C20.7388 11.7036 20.1381 11.5034 19.6441 11.7504C19.1501 11.9974 18.9499 12.5981 19.1969 13.092L20.9857 12.1976ZM24.5896 7.69931C24.8366 8.19329 25.4373 8.39351 25.9313 8.14652C26.4252 7.89953 26.6255 7.29886 26.3785 6.80488L24.5896 7.69931ZM23.7877 4.55574C23.7877 4.00345 23.34 3.55574 22.7877 3.55574C22.2354 3.55574 21.7877 4.00345 21.7877 4.55574H23.7877ZM21.7877 5.90392C21.7877 6.4562 22.2354 6.90392 22.7877 6.90392C23.34 6.90392 23.7877 6.4562 23.7877 5.90392H21.7877ZM23.7877 13.993C23.7877 13.4407 23.34 12.993 22.7877 12.993C22.2354 12.993 21.7877 13.4407 21.7877 13.993H23.7877ZM21.7877 15.3412C21.7877 15.8935 22.2354 16.3412 22.7877 16.3412C23.34 16.3412 23.7877 15.8935 23.7877 15.3412H21.7877ZM30.0247 31.7135L38.9901 26.5904L37.9978 24.8539L29.0324 29.977L30.0247 31.7135ZM38.9901 26.5904C39.9482 26.0429 41.2152 26.3825 41.7377 27.2968L43.4742 26.3046C42.3788 24.3877 39.8709 23.7836 37.9978 24.8539L38.9901 26.5904ZM41.7377 27.2968C42.2852 28.2549 41.9456 29.5219 41.0312 30.0444L42.0235 31.7809C43.9403 30.6856 44.5445 28.1777 43.4742 26.3046L41.7377 27.2968ZM41.0308 30.0447L27.9534 37.5271L28.9467 39.263L42.024 31.7806L41.0308 30.0447ZM27.9644 37.5209C27.4879 37.7856 26.9795 37.9343 26.4278 37.9343V39.9343C27.359 39.9343 28.1988 39.6786 28.9357 39.2692L27.9644 37.5209ZM26.4278 37.9343H16.5186V39.9343H26.4278V37.9343ZM16.5186 37.9343C15.6022 37.9343 14.6629 38.1832 13.8743 38.709L14.9837 40.3731C15.4083 40.0899 15.9521 39.9343 16.5186 39.9343V37.9343ZM13.9251 38.6772L11.4984 40.0928L12.5061 41.8204L14.9328 40.4048L13.9251 38.6772ZM18.7431 33.1934H26.4952V31.1934H18.7431V33.1934ZM26.4952 33.1934C28.7327 33.1934 30.5286 31.3975 30.5286 29.16H28.5286C28.5286 30.293 27.6281 31.1934 26.4952 31.1934V33.1934ZM30.5286 29.16C30.5286 26.9225 28.7327 25.1266 26.4952 25.1266V27.1266C27.6281 27.1266 28.5286 28.0271 28.5286 29.16H30.5286ZM26.4952 25.1266H15.5075V27.1266H26.4952V25.1266ZM15.5075 25.1266C14.591 25.1266 13.6518 25.3755 12.8631 25.9013L13.9725 27.5653C14.3972 27.2822 14.941 27.1266 15.5075 27.1266V25.1266ZM12.9008 25.8773L6.09253 29.9893L7.1265 31.7012L13.9348 27.5893L12.9008 25.8773ZM1.73129 32.3768L5.10174 30.3546L4.07275 28.6396L0.702301 30.6618L1.73129 32.3768ZM3.74176 30.0311L11.8308 42.8388L13.5218 41.7708L5.43274 28.9631L3.74176 30.0311ZM12.1216 41.4727L10.0994 42.8209L11.2088 44.485L13.231 43.1368L12.1216 41.4727ZM27.081 27.0753C29.5451 26.254 31.2538 24.1492 32.3126 22.4078C32.8531 21.5189 33.2511 20.6802 33.5143 20.0639C33.6462 19.7549 33.7452 19.4997 33.812 19.3193C33.8454 19.2291 33.8708 19.1574 33.8883 19.1069C33.897 19.0817 33.9038 19.0617 33.9086 19.0474C33.911 19.0402 33.913 19.0344 33.9144 19.0301C33.9151 19.0279 33.9157 19.0261 33.9162 19.0247C33.9164 19.0239 33.9166 19.0233 33.9168 19.0228C33.9169 19.0225 33.917 19.0222 33.917 19.022C33.9171 19.0217 33.9172 19.0214 32.9664 18.7116C32.0156 18.4018 32.0157 18.4016 32.0158 18.4014C32.0158 18.4013 32.0159 18.4011 32.0159 18.401C32.016 18.4009 32.016 18.4008 32.016 18.4008C32.016 18.4008 32.0159 18.4012 32.0156 18.4019C32.0151 18.4033 32.0142 18.4062 32.0128 18.4104C32.0099 18.4188 32.0052 18.4327 31.9986 18.4518C31.9854 18.4899 31.9647 18.5485 31.9363 18.625C31.8796 18.7783 31.7927 19.0028 31.675 19.2784C31.4389 19.8313 31.0828 20.5808 30.6037 21.3687C29.6234 22.981 28.2313 24.5837 26.4486 25.1779L27.081 27.0753ZM32.9664 18.7116C32.9604 17.7116 32.96 17.7116 32.9596 17.7117C32.9594 17.7117 32.959 17.7117 32.9586 17.7117C32.9578 17.7117 32.9569 17.7117 32.9557 17.7117C32.9535 17.7117 32.9506 17.7117 32.9471 17.7118C32.9399 17.7118 32.9302 17.712 32.9178 17.7122C32.8931 17.7126 32.8582 17.7133 32.8136 17.7146C32.7246 17.7171 32.5971 17.7217 32.437 17.7303C32.117 17.7475 31.665 17.7804 31.1272 17.8439C30.0578 17.97 28.6202 18.2199 27.1992 18.7206C25.7886 19.2177 24.3119 19.9906 23.2526 21.2135C22.1611 22.4734 21.5729 24.1445 21.8644 26.2629L23.8457 25.9903C23.6317 24.435 24.0546 23.3422 24.7643 22.523C25.506 21.6668 26.6204 21.0451 27.8639 20.6069C29.0972 20.1724 30.3771 19.9462 31.3615 19.8301C31.8506 19.7724 32.2596 19.7427 32.544 19.7274C32.686 19.7198 32.7966 19.7158 32.8699 19.7138C32.9066 19.7127 32.934 19.7122 32.9513 19.7119C32.96 19.7118 32.9661 19.7117 32.9697 19.7116C32.9715 19.7116 32.9726 19.7116 32.9731 19.7116C32.9733 19.7116 32.9734 19.7116 32.9733 19.7116C32.9732 19.7116 32.973 19.7116 32.973 19.7116C32.9728 19.7116 32.9725 19.7116 32.9664 18.7116ZM23.4045 25.8265C22.2983 22.3103 19.0633 20.8307 16.4105 20.207C15.0586 19.8892 13.7788 19.7723 12.8418 19.7337C12.3715 19.7143 11.9831 19.7145 11.7096 19.7197C11.5728 19.7223 11.4644 19.7262 11.3886 19.7295C11.3507 19.7312 11.3209 19.7327 11.2997 19.7339C11.2892 19.7344 11.2807 19.7349 11.2745 19.7353C11.2714 19.7355 11.2689 19.7356 11.2669 19.7358C11.2659 19.7358 11.265 19.7359 11.2643 19.7359C11.264 19.736 11.2635 19.736 11.2633 19.736C11.263 19.736 11.2626 19.736 11.3281 20.7339C11.3937 21.7317 11.3934 21.7318 11.3932 21.7318C11.3931 21.7318 11.3929 21.7318 11.3928 21.7318C11.3927 21.7318 11.3927 21.7318 11.3928 21.7318C11.393 21.7318 11.3938 21.7317 11.3952 21.7317C11.3979 21.7315 11.4027 21.7312 11.4096 21.7308C11.4235 21.7301 11.4458 21.7289 11.476 21.7276C11.5364 21.725 11.6283 21.7216 11.7477 21.7194C11.9866 21.7148 12.3345 21.7145 12.7595 21.732C13.613 21.7671 14.7599 21.8735 15.9527 22.1539C18.3893 22.7268 20.7155 23.9436 21.4967 26.4267L23.4045 25.8265ZM11.3281 20.7339C10.3715 21.0251 10.3715 21.0252 10.3716 21.0254C10.3716 21.0255 10.3717 21.0257 10.3717 21.0259C10.3718 21.0262 10.3719 21.0266 10.3721 21.027C10.3723 21.0279 10.3726 21.0289 10.373 21.0301C10.3738 21.0326 10.3748 21.0358 10.376 21.0397C10.3784 21.0476 10.3818 21.0584 10.3861 21.072C10.3948 21.0993 10.4073 21.1379 10.4235 21.187C10.4561 21.2851 10.504 21.4251 10.5676 21.5996C10.6946 21.9483 10.8848 22.4369 11.1407 23.0061C11.6495 24.1377 12.4325 25.6206 13.5174 26.9586L15.0709 25.699C14.1336 24.543 13.4335 23.2283 12.9648 22.186C12.7321 21.6683 12.56 21.2258 12.4468 20.9151C12.3903 20.76 12.3487 20.6383 12.3217 20.557C12.3083 20.5164 12.2985 20.486 12.2923 20.4667C12.2893 20.457 12.2871 20.4501 12.2858 20.446C12.2852 20.444 12.2848 20.4427 12.2847 20.4422C12.2846 20.4419 12.2845 20.4418 12.2846 20.4419C12.2846 20.4419 12.2846 20.442 12.2847 20.4422C12.2847 20.4422 12.2847 20.4424 12.2847 20.4424C12.2848 20.4426 12.2848 20.4427 11.3281 20.7339ZM29.8768 9.94846C29.8768 13.8636 26.7029 17.0375 22.7877 17.0375V19.0375C27.8074 19.0375 31.8768 14.9682 31.8768 9.94846H29.8768ZM22.7877 17.0375C18.8725 17.0375 15.6986 13.8636 15.6986 9.94846H13.6986C13.6986 14.9682 17.7679 19.0375 22.7877 19.0375V17.0375ZM15.6986 9.94846C15.6986 6.03326 18.8725 2.85938 22.7877 2.85938V0.859375C17.7679 0.859375 13.6986 4.9287 13.6986 9.94846H15.6986ZM22.7877 2.85938C26.7029 2.85938 29.8768 6.03326 29.8768 9.94846H31.8768C31.8768 4.9287 27.8074 0.859375 22.7877 0.859375V2.85938ZM21.7877 18.0375V24.7784H23.7877V18.0375H21.7877ZM19.1969 13.092C19.6649 14.028 20.3839 14.513 20.9838 14.753C21.2786 14.8708 21.5441 14.9301 21.7403 14.9603C21.8391 14.9755 21.9223 14.9836 21.9855 14.988C22.0172 14.9902 22.044 14.9914 22.0655 14.9921C22.0763 14.9925 22.0857 14.9927 22.0937 14.9928C22.0977 14.9929 22.1014 14.9929 22.1047 14.993C22.1064 14.993 22.1079 14.993 22.1094 14.993C22.1102 14.993 22.1109 14.993 22.1116 14.993C22.1119 14.993 22.1124 14.993 22.1126 14.993C22.1131 14.993 22.1136 14.993 22.1136 13.993C22.1136 12.993 22.1141 12.993 22.1145 12.993C22.1147 12.993 22.1152 12.993 22.1155 12.993C22.1161 12.993 22.1167 12.993 22.1173 12.993C22.1184 12.993 22.1195 12.993 22.1205 12.993C22.1225 12.993 22.1243 12.9931 22.1257 12.9931C22.1286 12.9931 22.1304 12.9932 22.1311 12.9932C22.1324 12.9932 22.1297 12.9932 22.1231 12.9927C22.11 12.9918 22.0826 12.9894 22.0445 12.9836C21.9668 12.9716 21.8532 12.9466 21.7266 12.896C21.4839 12.7989 21.1918 12.6098 20.9857 12.1976L19.1969 13.092ZM22.1136 14.993H23.4618V12.993H22.1136V14.993ZM23.4618 14.993C25.0926 14.993 26.484 13.6016 26.484 11.9707H24.484C24.484 12.497 23.988 12.993 23.4618 12.993V14.993ZM26.484 11.9707C26.484 10.3399 25.0926 8.94846 23.4618 8.94846V10.9485C23.988 10.9485 24.484 11.4445 24.484 11.9707H26.484ZM23.4618 8.94846H22.1136V10.9485H23.4618V8.94846ZM22.1136 8.94846C21.5873 8.94846 21.0913 8.45245 21.0913 7.92619H19.0913C19.0913 9.55701 20.4828 10.9485 22.1136 10.9485V8.94846ZM21.0913 7.92619C21.0913 7.39993 21.5873 6.90392 22.1136 6.90392V4.90392C20.4828 4.90392 19.0913 6.29536 19.0913 7.92619H21.0913ZM22.1136 6.90392H23.4618V4.90392H22.1136V6.90392ZM23.4618 5.90392C23.4618 6.90392 23.4613 6.90392 23.4608 6.90391C23.4607 6.90391 23.4602 6.90391 23.4599 6.90391C23.4593 6.90391 23.4587 6.90391 23.4581 6.90391C23.4569 6.9039 23.4559 6.9039 23.4548 6.90389C23.4528 6.90387 23.4511 6.90385 23.4497 6.90383C23.4468 6.90378 23.445 6.90373 23.4443 6.90371C23.4429 6.90366 23.4457 6.90373 23.4522 6.90418C23.4654 6.90509 23.4927 6.90748 23.5309 6.91335C23.6085 6.9253 23.7222 6.95029 23.8487 7.00091C24.0914 7.09799 24.3835 7.2871 24.5896 7.69931L26.3785 6.80488C25.9105 5.86891 25.1914 5.38393 24.5915 5.14396C24.2968 5.02606 24.0312 4.96679 23.835 4.93661C23.7362 4.92141 23.653 4.91328 23.5898 4.90892C23.5582 4.90673 23.5313 4.90549 23.5098 4.90478C23.4991 4.90443 23.4897 4.90421 23.4817 4.90408C23.4776 4.90402 23.474 4.90398 23.4707 4.90395C23.469 4.90394 23.4674 4.90393 23.4659 4.90392C23.4652 4.90392 23.4645 4.90392 23.4638 4.90392C23.4634 4.90392 23.4629 4.90392 23.4628 4.90392C23.4623 4.90392 23.4618 4.90392 23.4618 5.90392ZM21.7877 4.55574V5.90392H23.7877V4.55574H21.7877ZM21.7877 13.993V15.3412H23.7877V13.993H21.7877Z" fill="white"/>
</svg>
