<svg width="45" height="45" viewBox="0 0 45 45" fill="none" xmlns="http://www.w3.org/2000/svg">
<path d="M39.9744 21.4724V20.4724H37.9744V21.4724H39.9744ZM37.9744 24.8429V25.8429H39.9744V24.8429H37.9744ZM39.9744 36.9765V35.9765H37.9744V36.9765H39.9744ZM38.9744 38.9988V39.9988C39.5267 39.9988 39.9744 39.5511 39.9744 38.9988H38.9744ZM6.61804 38.9988H5.61804C5.61804 39.5511 6.06576 39.9988 6.61804 39.9988V38.9988ZM6.61804 6.64246V5.64246C6.06576 5.64246 5.61804 6.09017 5.61804 6.64246H6.61804ZM38.9744 6.64246H39.9744C39.9744 6.09017 39.5267 5.64246 38.9744 5.64246V6.64246ZM37.9744 9.33882V10.3388H39.9744V9.33882H37.9744ZM21.8987 27.588C22.1118 27.0785 21.8715 26.4927 21.362 26.2796C20.8524 26.0666 20.2667 26.3069 20.0536 26.8164L21.8987 27.588ZM18.5032 30.5239C18.2901 31.0334 18.5304 31.6192 19.0399 31.8323C19.5495 32.0454 20.1353 31.805 20.3483 31.2955L18.5032 30.5239ZM27.0892 15.1173C27.3023 14.6078 27.062 14.022 26.5525 13.809C26.0429 13.5959 25.4572 13.8362 25.2441 14.3457L27.0892 15.1173ZM23.6937 18.0532C23.4806 18.5628 23.7209 19.1485 24.2304 19.3616C24.74 19.5747 25.3258 19.3344 25.5388 18.8248L23.6937 18.0532ZM20.3483 14.3457C20.1353 13.8362 19.5495 13.5959 19.0399 13.809C18.5304 14.022 18.2901 14.6078 18.5032 15.1173L20.3483 14.3457ZM20.0536 18.8248C20.2667 19.3344 20.8524 19.5747 21.362 19.3616C21.8715 19.1485 22.1118 18.5628 21.8987 18.0532L20.0536 18.8248ZM25.2441 31.2955C25.4572 31.805 26.0429 32.0454 26.5525 31.8323C27.062 31.6192 27.3023 31.0334 27.0892 30.5239L25.2441 31.2955ZM25.5388 26.8164C25.3258 26.3069 24.74 26.0666 24.2304 26.2796C23.7209 26.4927 23.4806 27.0785 23.6937 27.588L25.5388 26.8164ZM31.2711 20.3728C31.7806 20.1597 32.0209 19.5739 31.8079 19.0644C31.5948 18.5548 31.009 18.3145 30.4995 18.5276L31.2711 20.3728ZM26.792 20.078C26.2825 20.2911 26.0421 20.8769 26.2552 21.3864C26.4683 21.8959 27.0541 22.1362 27.5636 21.9232L26.792 20.078ZM14.3213 25.2685C13.8118 25.4816 13.5715 26.0674 13.7845 26.5769C13.9976 27.0864 14.5834 27.3267 15.0929 27.1137L14.3213 25.2685ZM18.8004 25.5632C19.31 25.3502 19.5503 24.7644 19.3372 24.2549C19.1241 23.7453 18.5383 23.505 18.0288 23.7181L18.8004 25.5632ZM18.0288 21.9232C18.5383 22.1362 19.1241 21.8959 19.3372 21.3864C19.5503 20.8769 19.31 20.2911 18.8004 20.078L18.0288 21.9232ZM15.0929 18.5276C14.5834 18.3145 13.9976 18.5548 13.7845 19.0644C13.5715 19.5739 13.8118 20.1597 14.3213 20.3728L15.0929 18.5276ZM30.4995 27.1137C31.009 27.3267 31.5948 27.0864 31.8079 26.5769C32.0209 26.0674 31.7806 25.4816 31.2711 25.2685L30.4995 27.1137ZM27.5636 23.7181C27.0541 23.505 26.4683 23.7453 26.2552 24.2549C26.0421 24.7644 26.2825 25.3502 26.792 25.5632L27.5636 23.7181ZM40.9966 42.7174H4.59577V44.7174H40.9966V42.7174ZM4.59577 42.7174C3.66506 42.7174 2.89941 41.9518 2.89941 41.0211H0.899414C0.899414 43.0563 2.56049 44.7174 4.59577 44.7174V42.7174ZM2.89941 41.0211V4.62019H0.899414V41.0211H2.89941ZM2.89941 4.62019C2.89941 3.68948 3.66506 2.92383 4.59577 2.92383V0.923828C2.56049 0.923828 0.899414 2.58491 0.899414 4.62019H2.89941ZM4.59577 2.92383H40.9966V0.923828H4.59577V2.92383ZM40.9966 2.92383C41.9274 2.92383 42.693 3.68948 42.693 4.62019H44.693C44.693 2.58491 43.0319 0.923828 40.9966 0.923828V2.92383ZM42.693 4.62019V41.0211H44.693V4.62019H42.693ZM42.693 41.0211C42.693 41.9518 41.9274 42.7174 40.9966 42.7174V44.7174C43.0319 44.7174 44.693 43.0563 44.693 41.0211H42.693ZM37.9744 21.4724V24.8429H39.9744V21.4724H37.9744ZM37.9744 36.9765V38.9988H39.9744V36.9765H37.9744ZM38.9744 37.9988H6.61804V39.9988H38.9744V37.9988ZM7.61804 38.9988V6.64246H5.61804V38.9988H7.61804ZM6.61804 7.64246H38.9744V5.64246H6.61804V7.64246ZM37.9744 6.64246V9.33882H39.9744V6.64246H37.9744ZM39.6485 17.7761H38.3003V19.7761H39.6485V17.7761ZM38.3003 17.7761C38.1111 17.7761 37.9521 17.6171 37.9521 17.4279H35.9521C35.9521 18.7217 37.0065 19.7761 38.3003 19.7761V17.7761ZM37.9521 17.4279V13.3834H35.9521V17.4279H37.9521ZM37.9521 13.3834C37.9521 13.1941 38.1111 13.0352 38.3003 13.0352V11.0352C37.0065 11.0352 35.9521 12.0896 35.9521 13.3834H37.9521ZM38.3003 13.0352H39.6485V11.0352H38.3003V13.0352ZM39.6485 13.0352C39.8377 13.0352 39.9966 13.1941 39.9966 13.3834H41.9966C41.9966 12.0896 40.9422 11.0352 39.6485 11.0352V13.0352ZM39.9966 13.3834V17.4279H41.9966V13.3834H39.9966ZM39.9966 17.4279C39.9966 17.6171 39.8377 17.7761 39.6485 17.7761V19.7761C40.9422 19.7761 41.9966 18.7217 41.9966 17.4279H39.9966ZM39.6485 33.2802H38.3003V35.2802H39.6485V33.2802ZM38.3003 33.2802C38.1111 33.2802 37.9521 33.1212 37.9521 32.932H35.9521C35.9521 34.2258 37.0065 35.2802 38.3003 35.2802V33.2802ZM37.9521 32.932V28.8874H35.9521V32.932H37.9521ZM37.9521 28.8874C37.9521 28.6982 38.1111 28.5393 38.3003 28.5393V26.5393C37.0065 26.5393 35.9521 27.5936 35.9521 28.8874H37.9521ZM38.3003 28.5393H39.6485V26.5393H38.3003V28.5393ZM39.6485 28.5393C39.8377 28.5393 39.9966 28.6982 39.9966 28.8874H41.9966C41.9966 27.5936 40.9422 26.5393 39.6485 26.5393V28.5393ZM39.9966 28.8874V32.932H41.9966V28.8874H39.9966ZM39.9966 32.932C39.9966 33.1212 39.8377 33.2802 39.6485 33.2802V35.2802C40.9422 35.2802 41.9966 34.2258 41.9966 32.932H39.9966ZM30.5594 22.8206C30.5594 27.1081 27.0837 30.5838 22.7962 30.5838V32.5838C28.1883 32.5838 32.5594 28.2127 32.5594 22.8206H30.5594ZM22.7962 30.5838C18.5087 30.5838 15.033 27.1081 15.033 22.8206H13.033C13.033 28.2127 17.4042 32.5838 22.7962 32.5838V30.5838ZM15.033 22.8206C15.033 18.5331 18.5087 15.0574 22.7962 15.0574V13.0574C17.4042 13.0574 13.033 17.4286 13.033 22.8206H15.033ZM22.7962 15.0574C27.0837 15.0574 30.5594 18.5331 30.5594 22.8206H32.5594C32.5594 17.4286 28.1883 13.0574 22.7962 13.0574V15.0574ZM26.5148 22.8206C26.5148 24.8744 24.85 26.5393 22.7962 26.5393V28.5393C25.9545 28.5393 28.5148 25.9789 28.5148 22.8206H26.5148ZM22.7962 26.5393C20.7425 26.5393 19.0776 24.8744 19.0776 22.8206H17.0776C17.0776 25.9789 19.6379 28.5393 22.7962 28.5393V26.5393ZM19.0776 22.8206C19.0776 20.7669 20.7425 19.102 22.7962 19.102V17.102C19.6379 17.102 17.0776 19.6623 17.0776 22.8206H19.0776ZM22.7962 19.102C24.85 19.102 26.5148 20.7669 26.5148 22.8206H28.5148C28.5148 19.6623 25.9545 17.102 22.7962 17.102V19.102ZM20.0536 26.8164L18.5032 30.5239L20.3483 31.2955L21.8987 27.588L20.0536 26.8164ZM25.2441 14.3457L23.6937 18.0532L25.5388 18.8248L27.0892 15.1173L25.2441 14.3457ZM18.5032 15.1173L20.0536 18.8248L21.8987 18.0532L20.3483 14.3457L18.5032 15.1173ZM27.0892 30.5239L25.5388 26.8164L23.6937 27.588L25.2441 31.2955L27.0892 30.5239ZM30.4995 18.5276L26.792 20.078L27.5636 21.9232L31.2711 20.3728L30.4995 18.5276ZM15.0929 27.1137L18.8004 25.5632L18.0288 23.7181L14.3213 25.2685L15.0929 27.1137ZM18.8004 20.078L15.0929 18.5276L14.3213 20.3728L18.0288 21.9232L18.8004 20.078ZM31.2711 25.2685L27.5636 23.7181L26.792 25.5632L30.4995 27.1137L31.2711 25.2685Z" fill="white"/>
</svg>
