<svg width="44" height="44" viewBox="0 0 44 44" fill="none" xmlns="http://www.w3.org/2000/svg">
<path d="M29.66 22.6881V23.6881H31.66V22.6881H29.66ZM4.37045 36.1699V37.1699C4.92274 37.1699 5.37045 36.7222 5.37045 36.1699H4.37045ZM21.8968 43.9108H22.8968V41.9108H21.8968V43.9108ZM15.1559 1.11719L15.7559 0.317187C15.5828 0.187365 15.3723 0.117188 15.1559 0.117188V1.11719ZM19.8745 1.11719V0.117188C19.6093 0.117188 19.355 0.222544 19.1674 0.410081L19.8745 1.11719ZM14.7021 30.3299C14.4551 29.836 13.8545 29.6357 13.3605 29.8827C12.8665 30.1297 12.6663 30.7304 12.9133 31.2244L14.7021 30.3299ZM21.0024 23.1353C21.2494 23.6293 21.85 23.8295 22.344 23.5825C22.838 23.3355 23.0382 22.7348 22.7912 22.2409L21.0024 23.1353ZM18.8523 18.6435C18.8523 18.0912 18.4045 17.6435 17.8523 17.6435C17.3 17.6435 16.8523 18.0912 16.8523 18.6435H18.8523ZM16.8523 20.6658C16.8523 21.2181 17.3 21.6658 17.8523 21.6658C18.4045 21.6658 18.8523 21.2181 18.8523 20.6658H16.8523ZM18.8523 32.7994C18.8523 32.2471 18.4045 31.7994 17.8523 31.7994C17.3 31.7994 16.8523 32.2471 16.8523 32.7994H18.8523ZM16.8523 34.8217C16.8523 35.374 17.3 35.8217 17.8523 35.8217C18.4045 35.8217 18.8523 35.374 18.8523 34.8217H16.8523ZM38.749 42.9108V43.9108C39.3013 43.9108 39.749 43.4631 39.749 42.9108H38.749ZM25.9413 42.9108H24.9413C24.9413 43.4631 25.389 43.9108 25.9413 43.9108V42.9108ZM25.9413 38.8662V37.8662C25.389 37.8662 24.9413 38.3139 24.9413 38.8662H25.9413ZM38.749 38.8662H39.749C39.749 38.3139 39.3013 37.8662 38.749 37.8662V38.8662ZM40.0972 38.8662V39.8662C40.6495 39.8662 41.0972 39.4185 41.0972 38.8662H40.0972ZM27.2895 38.8662H26.2895C26.2895 39.4185 26.7372 39.8662 27.2895 39.8662V38.8662ZM27.2895 34.8217V33.8217C26.7372 33.8217 26.2895 34.2694 26.2895 34.8217H27.2895ZM40.0972 34.8217H41.0972C41.0972 34.2694 40.6495 33.8217 40.0972 33.8217V34.8217ZM42.7936 34.8217V35.8217C43.3459 35.8217 43.7936 35.374 43.7936 34.8217H42.7936ZM29.9859 34.8217H28.9859C28.9859 35.374 29.4336 35.8217 29.9859 35.8217V34.8217ZM29.9859 30.7772V29.7772C29.4336 29.7772 28.9859 30.2249 28.9859 30.7772H29.9859ZM42.7936 30.7772H43.7936C43.7936 30.2249 43.3459 29.7772 42.7936 29.7772V30.7772ZM41.4454 30.7772V31.7772C41.9977 31.7772 42.4454 31.3294 42.4454 30.7772H41.4454ZM28.6377 30.7772H27.6377C27.6377 31.3294 28.0854 31.7772 28.6377 31.7772V30.7772ZM28.6377 26.7326V25.7326C28.0854 25.7326 27.6377 26.1803 27.6377 26.7326H28.6377ZM41.4454 26.7326H42.4454C42.4454 26.1803 41.9977 25.7326 41.4454 25.7326V26.7326ZM31.66 22.6881V21.3399H29.66V22.6881H31.66ZM31.66 21.3399C31.66 14.8556 26.3588 9.55445 19.8745 9.55445V11.5544C25.2542 11.5544 29.66 15.9602 29.66 21.3399H31.66ZM19.8745 9.55445H15.1559V11.5544H19.8745V9.55445ZM15.1559 9.55445C8.67161 9.55445 3.37045 14.8556 3.37045 21.3399H5.37045C5.37045 15.9602 9.77618 11.5544 15.1559 11.5544V9.55445ZM3.37045 21.3399V36.1699H5.37045V21.3399H3.37045ZM4.37045 35.1699C1.93071 35.1699 0 37.1006 0 39.5403H2C2 38.2052 3.03528 37.1699 4.37045 37.1699V35.1699ZM0 39.5403C0 41.9801 1.93071 43.9108 4.37045 43.9108V41.9108C3.03528 41.9108 2 40.8755 2 39.5403H0ZM4.37045 43.9108H21.8968V41.9108H4.37045V43.9108ZM20.5486 9.55445H14.4818V11.5544H20.5486V9.55445ZM14.4818 9.55445C14.2926 9.55445 14.1336 9.39548 14.1336 9.20627H12.1336C12.1336 10.5001 13.188 11.5544 14.4818 11.5544V9.55445ZM14.1336 9.20627C14.1336 9.01705 14.2926 8.85809 14.4818 8.85809V6.85809C13.188 6.85809 12.1336 7.91248 12.1336 9.20627H14.1336ZM14.4818 8.85809H20.5486V6.85809H14.4818V8.85809ZM20.5486 8.85809C20.7378 8.85809 20.8968 9.01705 20.8968 9.20627H22.8968C22.8968 7.91248 21.8424 6.85809 20.5486 6.85809V8.85809ZM20.8968 9.20627C20.8968 9.39548 20.7378 9.55445 20.5486 9.55445V11.5544C21.8424 11.5544 22.8968 10.5001 22.8968 9.20627H20.8968ZM19.8745 6.85809H15.1559V8.85809H19.8745V6.85809ZM15.1559 6.85809C13.8207 6.85809 12.7854 5.82281 12.7854 4.48764H10.7854C10.7854 6.92737 12.7162 8.85809 15.1559 8.85809V6.85809ZM12.7854 4.48764C12.7854 3.15247 13.8207 2.11719 15.1559 2.11719V0.117188C12.7162 0.117188 10.7854 2.0479 10.7854 4.48764H12.7854ZM14.5559 1.91719C16.1709 3.12843 17.6827 3.17265 18.8137 2.83337C19.3559 2.6707 19.7854 2.42846 20.0797 2.2278C20.228 2.12674 20.3453 2.03393 20.429 1.96289C20.471 1.92728 20.5049 1.89688 20.5304 1.87331C20.5431 1.86152 20.5538 1.85141 20.5624 1.84318C20.5666 1.83906 20.5704 1.83542 20.5736 1.83226C20.5752 1.83068 20.5767 1.82923 20.578 1.8279C20.5787 1.82724 20.5793 1.8266 20.5799 1.826C20.5802 1.8257 20.5806 1.82527 20.5808 1.82512C20.5812 1.82471 20.5816 1.82429 19.8745 1.11719C19.1674 0.410081 19.1678 0.409685 19.1682 0.409297C19.1683 0.409178 19.1687 0.408796 19.1689 0.408558C19.1694 0.408079 19.1699 0.40763 19.1703 0.40721C19.1711 0.406369 19.1719 0.405643 19.1725 0.40503C19.1738 0.403805 19.1746 0.403027 19.1749 0.402677C19.1757 0.401978 19.1746 0.402976 19.1719 0.4055C19.1664 0.410566 19.1542 0.421637 19.1357 0.437375C19.0983 0.469024 19.0366 0.518407 18.9531 0.575342C18.7839 0.690657 18.5394 0.827595 18.239 0.917713C17.6847 1.08399 16.8373 1.12821 15.7559 0.317187L14.5559 1.91719ZM19.8745 2.11719C21.2097 2.11719 22.245 3.15247 22.245 4.48764H24.245C24.245 2.0479 22.3143 0.117188 19.8745 0.117188V2.11719ZM22.245 4.48764C22.245 5.82281 21.2097 6.85809 19.8745 6.85809V8.85809C22.3143 8.85809 24.245 6.92737 24.245 4.48764H22.245ZM12.9133 31.2244C13.5498 32.4974 14.5216 33.1509 15.3322 33.4751C15.7323 33.6351 16.0926 33.7155 16.3573 33.7562C16.4903 33.7767 16.6012 33.7874 16.6834 33.7931C16.7247 33.7959 16.7589 33.7975 16.7854 33.7984C16.7986 33.7988 16.81 33.7991 16.8193 33.7992C16.8239 33.7993 16.8281 33.7994 16.8317 33.7994C16.8336 33.7994 16.8353 33.7994 16.8368 33.7994C16.8376 33.7994 16.8383 33.7994 16.8391 33.7994C16.8394 33.7994 16.8399 33.7994 16.8401 33.7994C16.8406 33.7994 16.8411 33.7994 16.8411 32.7994C16.8411 31.7994 16.8416 31.7994 16.8421 31.7994C16.8422 31.7994 16.8427 31.7994 16.843 31.7994C16.8436 31.7994 16.8441 31.7994 16.8447 31.7994C16.8457 31.7994 16.8467 31.7994 16.8476 31.7994C16.8492 31.7995 16.8505 31.7995 16.8513 31.7995C16.8529 31.7995 16.8527 31.7995 16.8509 31.7995C16.8473 31.7993 16.8371 31.7989 16.821 31.7978C16.7888 31.7956 16.7338 31.7906 16.6614 31.7795C16.5153 31.757 16.3069 31.7109 16.075 31.6182C15.6216 31.4368 15.0768 31.0792 14.7021 30.3299L12.9133 31.2244ZM16.8411 33.7994H18.8634V31.7994H16.8411V33.7994ZM18.8634 33.7994C21.1009 33.7994 22.8968 32.0035 22.8968 29.766H20.8968C20.8968 30.899 19.9963 31.7994 18.8634 31.7994V33.7994ZM22.8968 29.766C22.8968 27.5285 21.1009 25.7326 18.8634 25.7326V27.7326C19.9963 27.7326 20.8968 28.6331 20.8968 29.766H22.8968ZM18.8634 25.7326H16.8411V27.7326H18.8634V25.7326ZM16.8411 25.7326C15.7082 25.7326 14.8077 24.8321 14.8077 23.6992H12.8077C12.8077 25.9367 14.6036 27.7326 16.8411 27.7326V25.7326ZM14.8077 23.6992C14.8077 22.5663 15.7082 21.6658 16.8411 21.6658V19.6658C14.6036 19.6658 12.8077 21.4617 12.8077 23.6992H14.8077ZM16.8411 21.6658H18.8634V19.6658H16.8411V21.6658ZM18.8634 20.6658C18.8634 21.6658 18.8629 21.6658 18.8624 21.6658C18.8623 21.6658 18.8618 21.6658 18.8615 21.6658C18.8609 21.6658 18.8604 21.6658 18.8598 21.6658C18.8588 21.6658 18.8578 21.6658 18.857 21.6658C18.8553 21.6658 18.854 21.6657 18.8532 21.6657C18.8516 21.6657 18.8518 21.6657 18.8536 21.6658C18.8572 21.6659 18.8674 21.6663 18.8835 21.6674C18.9157 21.6696 18.9707 21.6746 19.0431 21.6858C19.1892 21.7082 19.3976 21.7543 19.6295 21.8471C20.0829 22.0284 20.6277 22.386 21.0024 23.1353L22.7912 22.2409C22.1547 20.9678 21.1829 20.3143 20.3723 19.9901C19.9722 19.8301 19.6119 19.7497 19.3472 19.709C19.2142 19.6886 19.1033 19.6778 19.0211 19.6721C18.9798 19.6693 18.9456 19.6677 18.9191 19.6668C18.9059 19.6664 18.8945 19.6661 18.8852 19.666C18.8806 19.6659 18.8764 19.6659 18.8728 19.6658C18.8709 19.6658 18.8692 19.6658 18.8677 19.6658C18.8669 19.6658 18.8662 19.6658 18.8654 19.6658C18.8651 19.6658 18.8646 19.6658 18.8644 19.6658C18.8639 19.6658 18.8634 19.6658 18.8634 20.6658ZM16.8523 18.6435V20.6658H18.8523V18.6435H16.8523ZM16.8523 32.7994V34.8217H18.8523V32.7994H16.8523ZM38.749 41.9108H25.9413V43.9108H38.749V41.9108ZM26.9413 42.9108V38.8662H24.9413V42.9108H26.9413ZM25.9413 39.8662H38.749V37.8662H25.9413V39.8662ZM37.749 38.8662V42.9108H39.749V38.8662H37.749ZM40.0972 37.8662H27.2895V39.8662H40.0972V37.8662ZM28.2895 38.8662V34.8217H26.2895V38.8662H28.2895ZM27.2895 35.8217H40.0972V33.8217H27.2895V35.8217ZM39.0972 34.8217V38.8662H41.0972V34.8217H39.0972ZM42.7936 33.8217H29.9859V35.8217H42.7936V33.8217ZM30.9859 34.8217V30.7772H28.9859V34.8217H30.9859ZM29.9859 31.7772H42.7936V29.7772H29.9859V31.7772ZM41.7936 30.7772V34.8217H43.7936V30.7772H41.7936ZM41.4454 29.7772H28.6377V31.7772H41.4454V29.7772ZM29.6377 30.7772V26.7326H27.6377V30.7772H29.6377ZM28.6377 27.7326H41.4454V25.7326H28.6377V27.7326ZM40.4454 26.7326V30.7772H42.4454V26.7326H40.4454Z" fill="white"/>
</svg>
