<svg width="20" height="20" viewBox="0 0 20 20" fill="none" xmlns="http://www.w3.org/2000/svg">
<path d="M3.3335 5.17233C3.3335 4.15664 4.15688 3.33325 5.17258 3.33325H14.8277C15.8435 3.33325 16.6668 4.15664 16.6668 5.17233V12.0689C16.6668 13.0846 15.8435 13.908 14.8277 13.908H12.414L10.0002 16.6666L7.58637 13.908H5.17258C4.15688 13.908 3.3335 13.0846 3.3335 12.0689V5.17233Z" stroke="#111827" stroke-width="1.5" stroke-linecap="round" stroke-linejoin="round"/>
<path d="M7.70131 9.08038C7.70131 9.33426 7.49546 9.54015 7.24154 9.54015C6.98762 9.54015 6.78177 9.33426 6.78177 9.08038C6.78177 8.82649 6.98762 8.62061 7.24154 8.62061C7.49546 8.62061 7.70131 8.82649 7.70131 9.08038Z" stroke="#111827" stroke-width="1.5" stroke-linecap="round" stroke-linejoin="round"/>
<path d="M10.4599 9.08038C10.4599 9.33426 10.254 9.54015 10.0002 9.54015C9.74628 9.54015 9.54039 9.33426 9.54039 9.08038C9.54039 8.82649 9.74628 8.62061 10.0002 8.62061C10.254 8.62061 10.4599 8.82649 10.4599 9.08038Z" stroke="#111827" stroke-width="1.5" stroke-linecap="round" stroke-linejoin="round"/>
<path d="M13.2186 9.08038C13.2186 9.33426 13.0127 9.54015 12.7588 9.54015C12.5049 9.54015 12.299 9.33426 12.299 9.08038C12.299 8.82649 12.5049 8.62061 12.7588 8.62061C13.0127 8.62061 13.2186 8.82649 13.2186 9.08038Z" stroke="#111827" stroke-width="1.5" stroke-linecap="round" stroke-linejoin="round"/>
</svg>
