<svg width="20" height="20" viewBox="0 0 20 20" fill="none" xmlns="http://www.w3.org/2000/svg">
<path d="M7.9312 8.16084C7.9312 8.16084 8.16108 6.09187 10.0002 6.09187C11.8392 6.09187 12.0691 7.2413 12.0691 8.16084C12.0691 8.85169 11.6798 9.54263 10.9011 9.8435C10.4275 10.0265 10.0002 10.4116 10.0002 10.9195V11.1493M16.6668 9.99992C16.6668 13.6818 13.6821 16.6666 10.0002 16.6666C6.31827 16.6666 3.3335 13.6818 3.3335 9.99992C3.3335 6.31802 6.31827 3.33325 10.0002 3.33325C13.6821 3.33325 16.6668 6.31802 16.6668 9.99992ZM10.4599 13.6781C10.4599 13.932 10.254 14.1378 10.0002 14.1378C9.74628 14.1378 9.54039 13.932 9.54039 13.6781C9.54039 13.4242 9.74628 13.2183 10.0002 13.2183C10.254 13.2183 10.4599 13.4242 10.4599 13.6781Z" stroke="#111827" stroke-width="1.5" stroke-linecap="round" stroke-linejoin="round"/>
</svg>
