<svg width="20" height="20" viewBox="0 0 20 20" fill="none" xmlns="http://www.w3.org/2000/svg">
<path d="M16.6668 15.4999L14.5704 13.4166C15.409 12.3333 15.9121 10.9999 15.9121 9.58325C15.9121 6.16659 13.061 3.33325 9.6228 3.33325C6.18465 3.33325 3.3335 6.16659 3.3335 9.58325C3.3335 12.9999 6.18465 15.8333 9.6228 15.8333C11.0484 15.8333 12.3062 15.3333 13.3964 14.5833L15.4928 16.6666L16.6668 15.4999ZM5.01064 9.58325C5.01064 7.08325 7.10708 4.99992 9.6228 4.99992C12.1385 4.99992 14.235 7.08325 14.235 9.58325C14.235 12.0833 12.1385 14.1666 9.6228 14.1666C7.10708 14.1666 5.01064 12.0833 5.01064 9.58325Z" fill="#111827"/>
</svg>
