<svg width="20" height="20" viewBox="0 0 20 20" fill="none" xmlns="http://www.w3.org/2000/svg">
<path d="M8.33317 4.16675H4.99984C4.5396 4.16675 4.1665 4.53984 4.1665 5.00008V15.0001C4.1665 15.4603 4.5396 15.8334 4.99984 15.8334H12.4998M12.4998 15.8334H15.8332M12.4998 15.8334V10.8334M11.6665 6.04175H15.4165M11.6665 6.04175L13.5415 4.16675M11.6665 6.04175L13.5415 7.91675M10.4165 10.0001C10.4165 10.2302 10.23 10.4167 9.99984 10.4167C9.76972 10.4167 9.58317 10.2302 9.58317 10.0001C9.58317 9.76996 9.76972 9.58342 9.99984 9.58342C10.23 9.58342 10.4165 9.76996 10.4165 10.0001Z" stroke="#111827" stroke-width="1.5" stroke-linecap="round" stroke-linejoin="round"/>
</svg>
