<svg width="271" height="270" viewBox="0 0 271 270" fill="none" xmlns="http://www.w3.org/2000/svg">
<path d="M4.83203 130.5C2.34675 130.5 0.332031 132.515 0.332031 135C0.332031 137.485 2.34675 139.5 4.83203 139.5V130.5ZM50.2233 139.5C52.7086 139.5 54.7233 137.485 54.7233 135C54.7233 132.515 52.7086 130.5 50.2233 130.5V139.5ZM220.441 130.5C217.955 130.5 215.941 132.515 215.941 135C215.941 137.485 217.955 139.5 220.441 139.5V130.5ZM265.832 139.5C268.317 139.5 270.332 137.485 270.332 135C270.332 132.515 268.317 130.5 265.832 130.5V139.5ZM139.832 4.5C139.832 2.01472 137.817 0 135.332 0C132.847 0 130.832 2.01472 130.832 4.5H139.832ZM130.832 49.8913C130.832 52.3766 132.847 54.3913 135.332 54.3913C137.817 54.3913 139.832 52.3766 139.832 49.8913H130.832ZM139.832 220.109C139.832 217.623 137.817 215.609 135.332 215.609C132.847 215.609 130.832 217.623 130.832 220.109H139.832ZM130.832 265.5C130.832 267.985 132.847 270 135.332 270C137.817 270 139.832 267.985 139.832 265.5H130.832ZM144.623 138.05L146.066 133.787L146.056 133.784L146.046 133.781L144.623 138.05ZM126.112 131.879L124.669 136.142L124.679 136.145L124.689 136.148L126.112 131.879ZM232.962 135C232.962 188.92 189.252 232.63 135.332 232.63V241.63C194.222 241.63 241.962 193.89 241.962 135H232.962ZM135.332 232.63C81.4122 232.63 37.7016 188.92 37.7016 135H28.7016C28.7016 193.89 76.4417 241.63 135.332 241.63V232.63ZM37.7016 135C37.7016 81.0802 81.4122 37.3696 135.332 37.3696V28.3696C76.4417 28.3696 28.7016 76.1096 28.7016 135H37.7016ZM135.332 37.3696C189.252 37.3696 232.962 81.0802 232.962 135H241.962C241.962 76.1096 194.222 28.3696 135.332 28.3696V37.3696ZM4.83203 139.5H50.2233V130.5H4.83203V139.5ZM220.441 139.5H265.832V130.5H220.441V139.5ZM130.832 4.5V49.8913H139.832V4.5H130.832ZM130.832 220.109V265.5H139.832V220.109H130.832ZM193.245 135C193.245 166.984 167.317 192.913 135.332 192.913V201.913C172.287 201.913 202.245 171.955 202.245 135H193.245ZM135.332 192.913C103.348 192.913 77.419 166.984 77.419 135H68.419C68.419 171.955 98.377 201.913 135.332 201.913V192.913ZM77.419 135C77.419 103.016 103.348 77.087 135.332 77.087V68.087C98.377 68.087 68.419 98.0449 68.419 135H77.419ZM135.332 77.087C167.317 77.087 193.245 103.016 193.245 135H202.245C202.245 98.0449 172.287 68.087 135.332 68.087V77.087ZM113.81 146.348V152.022H122.81V146.348H113.81ZM113.81 152.022C113.81 160.748 120.932 167.87 129.658 167.87V158.87C125.902 158.87 122.81 155.778 122.81 152.022H113.81ZM129.658 167.87H141.006V158.87H129.658V167.87ZM141.006 167.87C149.733 167.87 156.854 160.748 156.854 152.022H147.854C147.854 155.778 144.762 158.87 141.006 158.87V167.87ZM156.854 152.022V148.83H147.854V152.022H156.854ZM156.854 148.83C156.854 142.002 152.498 135.964 146.066 133.787L143.18 142.312C145.968 143.256 147.854 145.871 147.854 148.83H156.854ZM146.046 133.781L127.535 127.61L124.689 136.148L143.2 142.319L146.046 133.781ZM127.555 127.617C124.767 126.673 122.881 124.058 122.881 121.099H113.881C113.881 127.927 118.237 133.965 124.669 136.142L127.555 127.617ZM122.881 121.099V117.978H113.881V121.099H122.881ZM122.881 117.978C122.881 114.222 125.973 111.13 129.729 111.13V102.13C121.002 102.13 113.881 109.252 113.881 117.978H122.881ZM129.729 111.13H141.077V102.13H129.729V111.13ZM141.077 111.13C144.833 111.13 147.925 114.222 147.925 117.978H156.925C156.925 109.252 149.803 102.13 141.077 102.13V111.13ZM147.925 117.978V123.652H156.925V117.978H147.925ZM139.832 106.63V89.6087H130.832V106.63H139.832ZM130.832 163.37V180.391H139.832V163.37H130.832Z" fill="#4A2472"/>
</svg>
