<svg width="267" height="30" viewBox="0 0 267 30" fill="none" xmlns="http://www.w3.org/2000/svg">
<path d="M58.5361 13.1709C53.3218 13.1709 50.834 17.6907 50.834 21.6255C50.834 26.7944 54.1921 29.9999 58.9289 29.9999C60.0438 29.9764 61.1405 29.7012 62.1432 29.1934C63.1459 28.6856 64.0306 27.9573 64.7363 27.0589L63.7658 24.3903C63.1644 25.082 62.4262 25.63 61.6019 25.9966C60.7775 26.3632 59.8866 26.5397 58.9905 26.5139C57.8891 26.5866 56.7991 26.2468 55.9176 25.556C55.0361 24.8652 54.4213 23.8689 54.1844 22.7474H65.7992C65.8639 22.3288 65.8948 21.9052 65.8916 21.4812C65.8916 16.9775 63.0649 13.1709 58.5361 13.1709ZM54.1921 19.9185C54.4871 19.0077 55.0494 18.2161 55.7997 17.6553C56.55 17.0946 57.4505 16.793 58.3743 16.793C59.2982 16.793 60.1987 17.0946 60.949 17.6553C61.6993 18.2161 62.2616 19.0077 62.5566 19.9185H54.1921Z" fill="white"/>
<path d="M77.0207 26.2656C74.04 26.2656 71.8526 24.4465 71.8526 21.4573C71.8526 19.3497 73.393 16.7372 76.9899 16.7372C78.573 16.8606 80.0715 17.5288 81.2492 18.6365L82.158 15.7916C81.4806 14.9156 80.6181 14.214 79.6376 13.7414C78.657 13.2688 77.5849 13.038 76.5047 13.0669C75.4383 13.0478 74.3793 13.2545 73.3919 13.6743C72.4046 14.0941 71.5096 14.7182 70.7612 15.5089C70.0128 16.2996 69.4267 17.2403 69.0383 18.2738C68.65 19.3074 68.4676 20.4123 68.5022 21.5215C68.4743 22.6272 68.6602 23.7276 69.0487 24.7573C69.4372 25.7869 70.0205 26.7249 70.7639 27.5157C71.5074 28.3064 72.3959 28.9337 73.3767 29.3605C74.3575 29.7873 75.4107 30.0048 76.4739 30.0001C77.5927 29.9952 78.6984 29.7483 79.7207 29.2751C80.743 28.8019 81.6595 28.1127 82.4122 27.2513L81.4648 24.3904C80.2499 25.5537 78.6712 26.2199 77.0207 26.2656Z" fill="white"/>
<path d="M93.5727 26.2657C90.592 26.2657 88.3969 24.4466 88.3969 21.4574C88.3969 19.3498 89.9373 16.7373 93.5419 16.7373C95.1342 16.8661 96.6391 17.546 97.8166 18.6686L98.7254 15.8237C98.0461 14.948 97.1821 14.2467 96.2004 13.7742C95.2187 13.3017 94.1457 13.0707 93.0644 13.099C92.0013 13.0812 90.9458 13.2877 89.9615 13.7061C88.9772 14.1244 88.0845 14.7458 87.3374 15.5329C86.5903 16.32 86.0041 17.2565 85.6144 18.2857C85.2246 19.315 85.0393 20.4157 85.0696 21.5215C85.0418 22.626 85.2272 23.725 85.6147 24.7536C86.0023 25.7822 86.5842 26.7195 87.326 27.51C88.0678 28.3005 88.9544 28.9282 89.9335 29.3559C90.9125 29.7836 91.9641 30.0027 93.0259 30.0002C94.1464 30.0031 95.2553 29.7631 96.2817 29.2953C97.3081 28.8276 98.2296 28.1424 98.9873 27.2835L98.0169 24.3905C96.8008 25.5519 95.2228 26.2178 93.5727 26.2657Z" fill="white"/>
<path d="M6.16169 6.75977H0V29.495H3.43514V20.792H6.2079C10.6828 20.792 13.1398 17.5864 13.1398 13.86C13.1706 9.66879 10.1283 6.75977 6.16169 6.75977ZM8.7727 16.184C8.18783 16.7499 7.41462 17.0573 6.61611 17.0415H3.37352V10.7667H6.69313C7.0946 10.7544 7.49406 10.8302 7.86559 10.9889C8.23712 11.1477 8.57242 11.386 8.84972 11.6883C9.39358 12.2968 9.68905 13.1013 9.67385 13.9321C9.68841 14.3538 9.61701 14.7739 9.46435 15.1648C9.31168 15.5557 9.08122 15.9085 8.78811 16.2001L8.7727 16.184Z" fill="white"/>
<path d="M43.725 19.3974H36.3002V13.4512H32.9883V29.4949H36.3002V23.0678H43.725V29.4949H47.0369V13.4512H43.725V19.3974Z" fill="white"/>
<path d="M22.0596 13.1709C16.853 13.1709 14.3575 17.6907 14.3575 21.6255C14.3344 26.7944 17.7157 29.9999 22.4602 29.9999C23.5751 29.9764 24.6718 29.7012 25.6745 29.1934C26.6771 28.6856 27.5619 27.9573 28.2676 27.0589L27.2971 24.3903C26.6957 25.082 25.9575 25.63 25.1331 25.9966C24.3088 26.3632 23.4179 26.5397 22.5218 26.5139C19.1945 26.5139 17.9005 23.9816 17.7157 22.7474H29.3304C29.3951 22.3288 29.426 21.9052 29.4229 21.4812C29.4229 16.9775 26.5962 13.1709 22.0596 13.1709ZM17.7157 19.8785C17.9512 18.9285 18.4995 18.0947 19.2651 17.5221C20.0308 16.9496 20.9652 16.6746 21.9056 16.7451C22.842 16.6862 23.7692 16.9661 24.53 17.5371C25.2908 18.1082 25.8384 18.9353 26.0802 19.8785H17.7157Z" fill="white"/>
<path d="M232.179 20.8556C232.668 20.4559 233.061 19.9441 233.328 19.3603C233.595 18.7765 233.73 18.1364 233.72 17.4898C233.744 16.9117 233.652 16.3346 233.449 15.7958C233.246 15.2569 232.937 14.7683 232.542 14.3614C232.146 13.9545 231.673 13.6382 231.153 13.4331C230.633 13.228 230.078 13.1385 229.522 13.1704C228.75 13.1637 227.989 13.3654 227.314 13.7559C226.639 14.1463 226.073 14.7122 225.671 15.3982L226.095 17.4337C226.476 16.8486 226.986 16.3662 227.582 16.0263C228.178 15.6863 228.843 15.4985 229.522 15.4783C229.804 15.465 230.084 15.5122 230.347 15.6169C230.611 15.7216 230.85 15.8816 231.051 16.0869C231.252 16.2922 231.41 16.5384 231.515 16.8101C231.621 17.0818 231.671 17.3732 231.663 17.6661C231.669 17.9788 231.613 18.2893 231.498 18.5781C231.382 18.8669 231.21 19.1276 230.993 19.3438C230.776 19.56 230.518 19.7269 230.236 19.834C229.953 19.9411 229.653 19.9861 229.353 19.9661H228.005V22.242H229.314C231.263 22.242 232.272 23.4922 232.272 24.8305C232.272 26.4332 231.201 27.4911 229.507 27.4911C228.713 27.4882 227.932 27.2829 227.233 26.8931C226.533 26.5033 225.936 25.9409 225.494 25.2552L224.939 27.1785C225.432 28.4207 227.212 29.767 229.507 29.767C232.249 29.767 234.313 27.8918 234.313 24.9186C234.352 24.1026 234.173 23.2912 233.797 22.5742C233.42 21.8572 232.86 21.2624 232.179 20.8556V20.8556Z" fill="white"/>
<path d="M113.892 15.014C112.588 13.7194 110.858 12.9914 109.055 12.9785C105.651 12.9785 101.353 15.3105 101.353 21.4571C101.314 22.5567 101.491 23.653 101.872 24.6794C102.253 25.7059 102.83 26.641 103.569 27.428C104.309 28.2149 105.194 28.8374 106.171 29.2575C107.149 29.6776 108.198 29.8865 109.255 29.8717C110.13 29.8703 110.995 29.6818 111.797 29.3179C112.598 28.9539 113.319 28.4223 113.915 27.756V29.4309H117.073V13.4032H113.861L113.892 15.014ZM113.823 24.2299C113.29 24.8618 112.629 25.3613 111.886 25.6914C111.144 26.0215 110.339 26.1739 109.533 26.1372C108.915 26.1717 108.298 26.0771 107.717 25.859C107.135 25.6408 106.602 25.3036 106.148 24.8673C105.694 24.4309 105.329 23.9043 105.075 23.3186C104.82 22.7328 104.68 22.0999 104.665 21.4571C104.665 18.7164 106.652 16.6488 109.533 16.6488C110.335 16.6257 111.134 16.7818 111.874 17.1067C112.614 17.4315 113.278 17.9176 113.823 18.5321V24.2299Z" fill="white"/>
<path d="M249.347 20.1183H240.998V13.4668H238.98V29.4944H240.998V22.3782H249.347V29.4944H251.358V13.4668H249.347V20.1183Z" fill="white"/>
<path d="M210.067 26.1046V13.4668H208.049V29.4944H210.236L218.539 16.9288V29.4944H220.557V13.4668H218.362L210.067 26.1046Z" fill="white"/>
<path d="M261.171 19.7657H258.86V13.4668H256.865V29.4945H261.155C261.787 29.5264 262.419 29.4229 263.011 29.1906C263.603 28.9582 264.142 28.6018 264.597 28.1435C265.051 27.6852 265.41 27.1348 265.651 26.5263C265.892 25.9178 266.011 25.2642 266 24.606C266.016 23.95 265.901 23.2976 265.662 22.6904C265.422 22.0832 265.064 21.5345 264.61 21.0792C264.156 20.6239 263.615 20.272 263.023 20.0459C262.431 19.8197 261.8 19.7243 261.171 19.7657ZM261.51 27.467H258.891V22.2419H261.51C261.839 22.234 262.167 22.2965 262.473 22.4256C262.778 22.5547 263.055 22.7476 263.286 22.9925C263.517 23.2374 263.697 23.5289 263.816 23.8492C263.934 24.1695 263.988 24.5116 263.974 24.8544C263.984 25.1961 263.927 25.5362 263.807 25.8544C263.687 26.1726 263.506 26.4623 263.276 26.7063C263.046 26.9502 262.771 27.1433 262.467 27.274C262.164 27.4047 261.838 27.4703 261.51 27.467Z" fill="white"/>
<path d="M203.797 13.4668H201.163L195.433 20.4789V13.4668H193.415V20.4789L187.692 13.4668H185.05L191.489 21.2562L184.596 29.4944H187.407L193.415 22.2419V29.4944H195.433V22.2419L201.44 29.4944H204.251L197.366 21.2562L203.797 13.4668Z" fill="white"/>
<path d="M132.707 19.3974H125.283V13.4512H121.971V29.4949H125.283V23.0678H132.707V29.4949H136.019V13.4512H132.707V19.3974Z" fill="white"/>
<path d="M147.835 26.2656C144.854 26.2656 142.667 24.4465 142.667 21.4573C142.667 19.3497 144.207 16.7372 147.804 16.7372C149.387 16.8606 150.885 17.5288 152.063 18.6365L152.972 15.7916C152.295 14.9156 151.432 14.214 150.451 13.7414C149.471 13.2688 148.399 13.038 147.319 13.0669C146.255 13.048 145.198 13.2537 144.213 13.6715C143.228 14.0894 142.335 14.7106 141.587 15.4979C140.839 16.2851 140.252 17.2219 139.862 18.2517C139.471 19.2815 139.286 20.3829 139.316 21.4894C139.284 22.5978 139.467 23.7017 139.853 24.7351C140.24 25.7685 140.823 26.7103 141.566 27.5045C142.31 28.2987 143.2 28.9289 144.183 29.3577C145.166 29.7864 146.222 30.0049 147.288 30.0001C148.414 30.0019 149.529 29.7582 150.56 29.2848C151.59 28.8114 152.514 28.1187 153.272 27.2513L152.279 24.3904C151.064 25.5537 149.485 26.2199 147.835 26.2656V26.2656Z" fill="white"/>
<path d="M160.797 25.0713H156.553V29.4869H160.797V25.0713Z" fill="white"/>
<path d="M168.275 23.0678L156.545 0.348633H179.998L168.275 23.0678Z" fill="#D3D726"/>
</svg>
