<svg width="267" height="30" viewBox="0 0 267 30" fill="none" xmlns="http://www.w3.org/2000/svg">
<path d="M58.5361 13.1709C53.3218 13.1709 50.834 17.6907 50.834 21.6255C50.834 26.7944 54.1921 29.9999 58.9289 29.9999C60.0438 29.9764 61.1405 29.7012 62.1432 29.1934C63.1459 28.6856 64.0306 27.9573 64.7363 27.0589L63.7658 24.3903C63.1644 25.082 62.4262 25.63 61.6019 25.9966C60.7775 26.3632 59.8866 26.5397 58.9905 26.5139C57.8891 26.5866 56.7991 26.2468 55.9176 25.556C55.0361 24.8652 54.4213 23.8689 54.1844 22.7474H65.7992C65.8639 22.3288 65.8948 21.9052 65.8916 21.4812C65.8916 16.9775 63.0649 13.1709 58.5361 13.1709ZM54.1921 19.9185C54.4871 19.0077 55.0494 18.2161 55.7997 17.6553C56.55 17.0946 57.4505 16.793 58.3743 16.793C59.2982 16.793 60.1987 17.0946 60.949 17.6553C61.6993 18.2161 62.2616 19.0077 62.5566 19.9185H54.1921Z" fill="#4A2472"/>
<path d="M77.0207 26.2652C74.04 26.2652 71.8526 24.446 71.8526 21.4569C71.8526 19.3492 73.393 16.7367 76.9899 16.7367C78.573 16.8601 80.0715 17.5283 81.2492 18.636L82.158 15.7911C81.4806 14.9151 80.6181 14.2135 79.6376 13.7409C78.657 13.2683 77.5849 13.0375 76.5047 13.0664C75.4383 13.0473 74.3793 13.254 73.3919 13.6738C72.4046 14.0936 71.5096 14.7177 70.7612 15.5084C70.0128 16.2991 69.4267 17.2398 69.0383 18.2733C68.65 19.3069 68.4676 20.4118 68.5022 21.521C68.4743 22.6268 68.6602 23.7271 69.0487 24.7568C69.4372 25.7864 70.0205 26.7244 70.7639 27.5152C71.5074 28.3059 72.3959 28.9332 73.3767 29.36C74.3575 29.7868 75.4107 30.0043 76.4739 29.9996C77.5927 29.9947 78.6984 29.7478 79.7207 29.2746C80.743 28.8014 81.6595 28.1122 82.4122 27.2509L81.4648 24.3899C80.2499 25.5532 78.6712 26.2194 77.0207 26.2652Z" fill="#4A2472"/>
<path d="M93.5727 26.2652C90.592 26.2652 88.3969 24.4461 88.3969 21.4569C88.3969 19.3493 89.9373 16.7368 93.5419 16.7368C95.1342 16.8656 96.6391 17.5455 97.8166 18.6681L98.7254 15.8232C98.0461 14.9475 97.1821 14.2462 96.2004 13.7737C95.2187 13.3013 94.1457 13.0702 93.0644 13.0985C92.0013 13.0807 90.9458 13.2872 89.9615 13.7056C88.9772 14.1239 88.0845 14.7453 87.3374 15.5324C86.5903 16.3195 86.0041 17.256 85.6144 18.2852C85.2246 19.3145 85.0393 20.4152 85.0696 21.521C85.0418 22.6255 85.2272 23.7245 85.6147 24.7531C86.0023 25.7817 86.5842 26.719 87.326 27.5095C88.0678 28.3 88.9544 28.9277 89.9335 29.3554C90.9125 29.7831 91.9641 30.0022 93.0259 29.9997C94.1464 30.0026 95.2553 29.7626 96.2817 29.2949C97.3081 28.8271 98.2296 28.1419 98.9873 27.283L98.0169 24.39C96.8008 25.5514 95.2228 26.2173 93.5727 26.2652Z" fill="#4A2472"/>
<path d="M6.16169 6.75977H0V29.495H3.43514V20.792H6.2079C10.6828 20.792 13.1398 17.5864 13.1398 13.86C13.1706 9.66879 10.1283 6.75977 6.16169 6.75977ZM8.7727 16.184C8.18783 16.7499 7.41462 17.0573 6.61611 17.0415H3.37352V10.7667H6.69313C7.0946 10.7544 7.49406 10.8302 7.86559 10.9889C8.23712 11.1477 8.57242 11.386 8.84972 11.6883C9.39358 12.2968 9.68905 13.1013 9.67385 13.9321C9.68841 14.3538 9.61701 14.7739 9.46435 15.1648C9.31168 15.5557 9.08122 15.9085 8.78811 16.2001L8.7727 16.184Z" fill="#4A2472"/>
<path d="M43.725 19.3974H36.3002V13.4512H32.9883V29.4949H36.3002V23.0678H43.725V29.4949H47.0369V13.4512H43.725V19.3974Z" fill="#4A2472"/>
<path d="M22.0596 13.1709C16.853 13.1709 14.3575 17.6907 14.3575 21.6255C14.3344 26.7944 17.7157 29.9999 22.4602 29.9999C23.5751 29.9764 24.6718 29.7012 25.6745 29.1934C26.6771 28.6856 27.5619 27.9573 28.2676 27.0589L27.2971 24.3903C26.6957 25.082 25.9575 25.63 25.1331 25.9966C24.3088 26.3632 23.4179 26.5397 22.5218 26.5139C19.1945 26.5139 17.9005 23.9816 17.7157 22.7474H29.3304C29.3951 22.3288 29.426 21.9052 29.4229 21.4812C29.4229 16.9775 26.5962 13.1709 22.0596 13.1709ZM17.7157 19.8785C17.9512 18.9285 18.4995 18.0947 19.2651 17.5221C20.0308 16.9496 20.9652 16.6746 21.9056 16.7451C22.842 16.6862 23.7692 16.9661 24.53 17.5371C25.2908 18.1082 25.8384 18.9353 26.0802 19.8785H17.7157Z" fill="#4A2472"/>
<path d="M232.179 20.8561C232.668 20.4564 233.061 19.9446 233.328 19.3608C233.595 18.777 233.73 18.1369 233.72 17.4903C233.744 16.9122 233.652 16.3351 233.449 15.7963C233.246 15.2574 232.937 14.7688 232.542 14.3619C232.146 13.9549 231.673 13.6387 231.153 13.4336C230.633 13.2284 230.078 13.1389 229.522 13.1709C228.75 13.1642 227.989 13.3659 227.314 13.7564C226.639 14.1468 226.073 14.7127 225.671 15.3987L226.095 17.4342C226.476 16.8491 226.986 16.3667 227.582 16.0268C228.178 15.6868 228.843 15.499 229.522 15.4788C229.804 15.4655 230.084 15.5127 230.347 15.6174C230.611 15.7221 230.85 15.8821 231.051 16.0874C231.252 16.2927 231.41 16.5389 231.515 16.8106C231.621 17.0823 231.671 17.3737 231.663 17.6666C231.669 17.9793 231.613 18.2898 231.498 18.5786C231.382 18.8674 231.21 19.1281 230.993 19.3443C230.776 19.5605 230.518 19.7274 230.236 19.8345C229.953 19.9416 229.653 19.9866 229.353 19.9666H228.005V22.2425H229.314C231.263 22.2425 232.272 23.4927 232.272 24.831C232.272 26.4337 231.201 27.4916 229.507 27.4916C228.713 27.4887 227.932 27.2834 227.233 26.8936C226.533 26.5038 225.936 25.9414 225.494 25.2557L224.939 27.179C225.432 28.4212 227.212 29.7675 229.507 29.7675C232.249 29.7675 234.313 27.8923 234.313 24.9191C234.352 24.1031 234.173 23.2917 233.797 22.5747C233.42 21.8577 232.86 21.2629 232.179 20.8561V20.8561Z" fill="#4A2472"/>
<path d="M113.892 15.014C112.588 13.7194 110.858 12.9914 109.055 12.9785C105.651 12.9785 101.353 15.3105 101.353 21.4571C101.314 22.5567 101.491 23.653 101.872 24.6794C102.253 25.7059 102.83 26.641 103.569 27.428C104.309 28.2149 105.194 28.8374 106.171 29.2575C107.149 29.6776 108.198 29.8865 109.255 29.8717C110.13 29.8703 110.995 29.6818 111.797 29.3179C112.598 28.9539 113.319 28.4223 113.915 27.756V29.4309H117.073V13.4032H113.861L113.892 15.014ZM113.823 24.2299C113.29 24.8618 112.629 25.3613 111.886 25.6914C111.144 26.0215 110.339 26.1739 109.533 26.1372C108.915 26.1717 108.298 26.0771 107.717 25.859C107.135 25.6408 106.602 25.3036 106.148 24.8673C105.694 24.4309 105.329 23.9043 105.075 23.3186C104.82 22.7328 104.68 22.0999 104.665 21.4571C104.665 18.7164 106.652 16.6488 109.533 16.6488C110.335 16.6257 111.134 16.7818 111.874 17.1067C112.614 17.4315 113.278 17.9176 113.823 18.5321V24.2299Z" fill="#4A2472"/>
<path d="M249.347 20.1188H240.998V13.4673H238.98V29.4949H240.998V22.3787H249.347V29.4949H251.358V13.4673H249.347V20.1188Z" fill="#4A2472"/>
<path d="M210.067 26.1051V13.4673H208.049V29.4949H210.236L218.539 16.9293V29.4949H220.557V13.4673H218.362L210.067 26.1051Z" fill="#4A2472"/>
<path d="M261.171 19.7662H258.86V13.4673H256.865V29.4949H261.155C261.787 29.5269 262.419 29.4234 263.011 29.1911C263.603 28.9587 264.142 28.6023 264.597 28.144C265.051 27.6857 265.41 27.1353 265.651 26.5268C265.892 25.9183 266.011 25.2647 266 24.6065C266.016 23.9505 265.901 23.2981 265.662 22.6909C265.422 22.0837 265.064 21.535 264.61 21.0797C264.156 20.6244 263.615 20.2725 263.023 20.0464C262.431 19.8202 261.8 19.7248 261.171 19.7662ZM261.51 27.4674H258.891V22.2424H261.51C261.839 22.2345 262.167 22.2969 262.473 22.426C262.778 22.5551 263.055 22.7481 263.286 22.993C263.517 23.2378 263.697 23.5294 263.816 23.8497C263.934 24.17 263.988 24.5121 263.974 24.8549C263.984 25.1966 263.927 25.5367 263.807 25.8549C263.687 26.1731 263.506 26.4628 263.276 26.7067C263.046 26.9507 262.771 27.1438 262.467 27.2745C262.164 27.4052 261.838 27.4708 261.51 27.4674Z" fill="#4A2472"/>
<path d="M203.797 13.4673H201.163L195.433 20.4794V13.4673H193.415V20.4794L187.692 13.4673H185.05L191.489 21.2567L184.596 29.4949H187.407L193.415 22.2424V29.4949H195.433V22.2424L201.44 29.4949H204.251L197.366 21.2567L203.797 13.4673Z" fill="#4A2472"/>
<path d="M132.707 19.3974H125.283V13.4512H121.971V29.4949H125.283V23.0678H132.707V29.4949H136.019V13.4512H132.707V19.3974Z" fill="#4A2472"/>
<path d="M147.835 26.2652C144.854 26.2652 142.667 24.446 142.667 21.4569C142.667 19.3492 144.207 16.7367 147.804 16.7367C149.387 16.8601 150.885 17.5283 152.063 18.636L152.972 15.7911C152.295 14.9151 151.432 14.2135 150.451 13.7409C149.471 13.2683 148.399 13.0375 147.319 13.0664C146.255 13.0475 145.198 13.2532 144.213 13.671C143.228 14.0889 142.335 14.7102 141.587 15.4974C140.839 16.2846 140.252 17.2214 139.862 18.2512C139.471 19.281 139.286 20.3824 139.316 21.4889C139.284 22.5974 139.467 23.7012 139.853 24.7346C140.24 25.768 140.823 26.7098 141.566 27.504C142.31 28.2982 143.2 28.9284 144.183 29.3572C145.166 29.7859 146.222 30.0044 147.288 29.9996C148.414 30.0014 149.529 29.7577 150.56 29.2843C151.59 28.8109 152.514 28.1182 153.272 27.2509L152.279 24.3899C151.064 25.5532 149.485 26.2194 147.835 26.2652V26.2652Z" fill="#4A2472"/>
<path d="M160.797 25.0713H156.553V29.4869H160.797V25.0713Z" fill="#4A2472"/>
<path d="M168.275 23.0678L156.545 0.348633H179.998L168.275 23.0678Z" fill="#D3D726"/>
</svg>
