<svg width="20" height="21" viewBox="0 0 20 21" fill="none" xmlns="http://www.w3.org/2000/svg">
<path d="M7.93071 8.82856C7.93071 8.82856 8.16059 6.7596 9.99967 6.7596C11.8388 6.7596 12.0686 7.90902 12.0686 8.82856C12.0686 9.51941 11.6793 10.2104 10.9006 10.5112C10.427 10.6942 9.99967 11.0793 9.99967 11.5872V11.8171M16.6663 10.6676C16.6663 14.3496 13.6816 17.3343 9.99967 17.3343C6.31778 17.3343 3.33301 14.3496 3.33301 10.6676C3.33301 6.98575 6.31778 4.00098 9.99967 4.00098C13.6816 4.00098 16.6663 6.98575 16.6663 10.6676ZM10.4594 14.3458C10.4594 14.5997 10.2536 14.8056 9.99967 14.8056C9.74579 14.8056 9.5399 14.5997 9.5399 14.3458C9.5399 14.0919 9.74579 13.886 9.99967 13.886C10.2536 13.886 10.4594 14.0919 10.4594 14.3458Z" stroke="#95A3BA" stroke-width="1.5" stroke-linecap="round" stroke-linejoin="round"/>
</svg>
