<svg width="83" height="62" viewBox="0 0 83 62" fill="none" xmlns="http://www.w3.org/2000/svg">
<path d="M45.3134 24.1298L46.013 23.4152C45.8261 23.2322 45.5749 23.1298 45.3134 23.1298V24.1298ZM40.5746 24.1298V23.1298C40.3593 23.1298 40.1498 23.1992 39.9772 23.3278L40.5746 24.1298ZM34.988 27.3578L35.3286 28.298L35.3363 28.2952L34.988 27.3578ZM26.945 25.2445L26.196 24.582C25.8532 24.9695 25.8627 25.5545 26.2178 25.9308L26.945 25.2445ZM32.1621 19.4851L32.895 20.1655L32.898 20.1622L32.1621 19.4851ZM37.2052 14.0044L36.5271 13.2695C36.5071 13.2879 36.4878 13.3072 36.4694 13.3273L37.2052 14.0044ZM55.8127 10.7532L55.0826 10.0698L55.0826 10.0698L55.8127 10.7532ZM57.7166 10.1825C58.094 9.77927 58.0731 9.14645 57.6699 8.76904C57.2667 8.39162 56.6339 8.41253 56.2565 8.81574L57.7166 10.1825ZM71.6812 29.5872L72.4092 30.2728L72.4113 30.2706L71.6812 29.5872ZM58.3343 48.5142L57.66 49.2526L57.6754 49.2667L57.6913 49.2801L58.3343 48.5142ZM48.3543 37.1556C47.9682 36.7607 47.3351 36.7536 46.9402 37.1397C46.5453 37.5258 46.5382 38.1589 46.9243 38.5538L48.3543 37.1556ZM60.5029 49.6491C60.7065 49.1357 60.4553 48.5545 59.9418 48.3509C59.4284 48.1474 58.8472 48.3986 58.6437 48.912L60.5029 49.6491ZM51.6608 52.6479L50.9865 53.3864L51.009 53.4069L51.0328 53.4261L51.6608 52.6479ZM44.5679 44.3042C44.1795 43.9116 43.5464 43.9081 43.1537 44.2965C42.7611 44.6849 42.7576 45.3181 43.146 45.7107L44.5679 44.3042ZM54.0674 53.9987C54.3003 53.4979 54.0833 52.9031 53.5825 52.6702C53.0818 52.4372 52.487 52.6543 52.254 53.155L54.0674 53.9987ZM45.2699 56.6423L45.9146 55.8779L45.9125 55.8761L45.2699 56.6423ZM40.9228 50.9065C40.5511 50.4981 39.9186 50.4684 39.5102 50.8401C39.1017 51.2119 39.072 51.8443 39.4438 52.2528L40.9228 50.9065ZM47.1629 57.62C47.3565 57.1028 47.0942 56.5265 46.577 56.3328C46.0598 56.1392 45.4835 56.4015 45.2899 56.9187L47.1629 57.62ZM39.466 60.358L38.9095 61.1889L38.9113 61.1901L39.466 60.358ZM36.1612 56.7076C35.7227 56.3719 35.095 56.4551 34.7592 56.8936C34.4234 57.3321 34.5067 57.9597 34.9452 58.2955L36.1612 56.7076ZM19.1195 41.2917L19.8671 40.6275L19.8612 40.621L19.1195 41.2917ZM14.598 41.1989L15.311 41.9L15.3166 41.8943L15.3222 41.8885L14.598 41.1989ZM12.7938 43.0335L12.0808 42.3323L12.0752 42.338L12.0697 42.3438L12.7938 43.0335ZM12.7286 47.8639L13.4703 47.1932L13.4646 47.1869L12.7286 47.8639ZM17.2718 47.9568L16.5546 47.26L16.5538 47.2608L17.2718 47.9568ZM19.0543 46.1222L19.7715 46.819L19.7723 46.8182L19.0543 46.1222ZM26.619 43.0103L27.3609 42.3398L27.3607 42.3395L26.619 43.0103ZM22.0975 42.9174L22.819 43.6099L22.8217 43.6071L22.0975 42.9174ZM16.8588 48.3748L16.1373 47.6823L16.1346 47.6852L16.8588 48.3748ZM16.7935 53.2053L17.5353 52.5345L17.5295 52.5283L16.7935 53.2053ZM21.3367 53.2982L22.0547 53.9942L22.0581 53.9907L21.3367 53.2982ZM26.5538 47.8639L27.2752 48.5565L27.2779 48.5536L26.5538 47.8639ZM31.5317 47.4924L32.2793 46.8282L32.279 46.8279L31.5317 47.4924ZM27.0103 47.353L26.2923 46.6569L26.288 46.6614L27.0103 47.353ZM22.2062 52.3692L22.9182 53.0714L22.9234 53.0662L22.9284 53.0609L22.2062 52.3692ZM26.6407 57.3158L27.3589 58.0117L27.3629 58.0075L26.6407 57.3158ZM31.423 52.3228L30.711 51.6206L30.7059 51.6258L30.7008 51.6311L31.423 52.3228ZM34.6619 53.7626L35.4038 53.0921L35.4036 53.0919L34.6619 53.7626ZM30.1405 53.693L30.8583 54.3892L30.8645 54.3828L30.8706 54.3763L30.1405 53.693ZM28.9014 54.9702L28.1836 54.2739L28.1773 54.2806L28.9014 54.9702ZM28.858 59.8007L29.5997 59.1299L29.5939 59.1237L28.858 59.8007ZM33.4011 59.8471L32.6836 59.1506L32.6773 59.1571L32.6711 59.1638L33.4011 59.8471ZM34.6184 58.5931L35.336 59.2896L35.3423 59.2831L35.3485 59.2764L34.6184 58.5931ZM59.5286 33.1878C60.0679 33.0684 60.4082 32.5345 60.2888 31.9953C60.1694 31.456 59.6355 31.1157 59.0963 31.2351L59.5286 33.1878ZM22.0906 1L22.8207 0.31663C22.6316 0.114633 22.3673 0 22.0906 0C21.814 0 21.5496 0.114633 21.3606 0.31663L22.0906 1ZM28.4695 7.81478L29.1996 8.49815C29.5595 8.11365 29.5595 7.51591 29.1996 7.13141L28.4695 7.81478ZM8.21088 29.4579L7.48081 30.1412C7.66988 30.3432 7.9342 30.4579 8.21088 30.4579C8.48756 30.4579 8.75187 30.3432 8.94095 30.1412L8.21088 29.4579ZM1.83203 22.6431L1.10196 21.9597C0.742055 22.3442 0.742055 22.942 1.10196 23.3265L1.83203 22.6431ZM81.832 22.4259L82.5621 23.1092C82.922 22.7247 82.922 22.127 82.5621 21.7425L81.832 22.4259ZM75.4532 29.2406L74.7231 29.924C74.9122 30.126 75.1765 30.2406 75.4532 30.2406C75.7299 30.2406 75.9942 30.126 76.1833 29.924L75.4532 29.2406ZM55.6096 8.04091L54.8795 7.35754C54.5196 7.74204 54.5196 8.33978 54.8795 8.72428L55.6096 8.04091ZM61.9884 1.22613L62.7185 0.542759C62.5294 0.340762 62.2651 0.226129 61.9884 0.226129C61.7118 0.226129 61.4474 0.340762 61.2584 0.542759L61.9884 1.22613ZM52.5125 29.7784L46.013 23.4152L44.6138 24.8443L51.1134 31.2075L52.5125 29.7784ZM45.3134 23.1298H40.5746V25.1298H45.3134V23.1298ZM40.5746 24.1298C39.9772 23.3278 39.9773 23.3277 39.9773 23.3277C39.9774 23.3277 39.9774 23.3277 39.9774 23.3277C39.9774 23.3276 39.9774 23.3277 39.9773 23.3277C39.9771 23.3279 39.9768 23.3281 39.9762 23.3285C39.9751 23.3293 39.9733 23.3307 39.9708 23.3326C39.9657 23.3363 39.9578 23.3422 39.9471 23.3501C39.9256 23.3658 39.8931 23.3896 39.8504 23.4205C39.765 23.4824 39.639 23.5727 39.4795 23.6845C39.1602 23.9081 38.7086 24.2161 38.1813 24.5521C37.1126 25.2331 35.7878 25.9938 34.6397 26.4204L35.3363 28.2952C36.688 27.7929 38.1565 26.9395 39.2561 26.2388C39.813 25.8839 40.2893 25.559 40.6269 25.3226C40.7959 25.2042 40.9306 25.1077 41.0237 25.0402C41.0703 25.0064 41.1066 24.9799 41.1315 24.9616C41.144 24.9524 41.1537 24.9452 41.1605 24.9402C41.1639 24.9377 41.1665 24.9358 41.1684 24.9343C41.1694 24.9336 41.1702 24.9331 41.1707 24.9326C41.171 24.9324 41.1713 24.9322 41.1715 24.9321C41.1716 24.932 41.1717 24.9319 41.1717 24.9319C41.1718 24.9318 41.1719 24.9317 40.5746 24.1298ZM34.6474 26.4176C33.533 26.8213 32.3825 26.9659 31.2379 26.7247C30.0997 26.4849 28.8891 25.8475 27.6723 24.5581L26.2178 25.9308C27.6748 27.4747 29.2357 28.3468 30.8256 28.6818C32.4091 29.0154 33.9431 28.8 35.3286 28.298L34.6474 26.4176ZM27.6941 25.907C28.9936 24.4377 30.2941 23.002 31.2702 21.9331C31.7581 21.3988 32.1646 20.9566 32.449 20.648C32.5912 20.4937 32.7029 20.3729 32.7789 20.2908C32.8169 20.2497 32.846 20.2182 32.8656 20.1971C32.8754 20.1866 32.8828 20.1786 32.8877 20.1733C32.8902 20.1707 32.892 20.1687 32.8932 20.1674C32.8938 20.1667 32.8943 20.1662 32.8946 20.1659C32.8947 20.1657 32.8948 20.1656 32.8949 20.1655C32.8949 20.1655 32.895 20.1655 32.895 20.1655C32.895 20.1655 32.895 20.1655 32.1621 19.4851C31.4292 18.8048 31.4292 18.8048 31.4292 18.8048C31.4291 18.8048 31.4291 18.8049 31.429 18.8049C31.429 18.805 31.4288 18.8052 31.4287 18.8054C31.4283 18.8057 31.4278 18.8063 31.4272 18.807C31.4259 18.8084 31.4239 18.8105 31.4214 18.8132C31.4163 18.8187 31.4087 18.8269 31.3987 18.8376C31.3788 18.8591 31.3493 18.891 31.3109 18.9325C31.2341 19.0155 31.1216 19.1373 30.9785 19.2925C30.6923 19.603 30.2836 20.0476 29.7933 20.5845C28.8131 21.6579 27.505 23.102 26.196 24.582L27.6941 25.907ZM32.898 20.1622L37.9411 14.6815L36.4694 13.3273L31.4262 18.808L32.898 20.1622ZM37.8833 14.7394C38.2912 14.3631 38.5771 14.2011 38.8464 14.1134C39.1356 14.0192 39.4882 13.9826 40.0963 13.9826V11.9826C39.4437 11.9826 38.829 12.0157 38.227 12.2117C37.605 12.4143 37.0757 12.7633 36.5271 13.2695L37.8833 14.7394ZM40.0963 13.9826H48.7914V11.9826H40.0963V13.9826ZM48.7914 13.9826C49.7162 13.9826 51.115 13.891 52.5314 13.5447C53.9282 13.2032 55.4692 12.5835 56.5428 11.4365L55.0826 10.0698C54.3954 10.804 53.2953 11.299 52.0564 11.6019C50.8372 11.9 49.6057 11.9826 48.7914 11.9826V13.9826ZM56.5428 11.4365L57.7166 10.1825L56.2565 8.81574L55.0826 10.0698L56.5428 11.4365ZM64.2945 43.8873C68.4325 39.8348 69.6754 37.2363 70.3013 35.1026C70.9214 32.9883 70.8508 31.9275 72.4092 30.2728L70.9532 28.9016C68.9683 31.0092 68.8978 32.7815 68.3821 34.5397C67.8721 36.2785 66.8435 38.5917 62.8951 42.4584L64.2945 43.8873ZM72.4113 30.2706L74.4546 28.0876L72.9945 26.7209L70.9511 28.9039L72.4113 30.2706ZM51.813 30.4929C51.0665 31.1584 51.0666 31.1585 51.0667 31.1585C51.0667 31.1586 51.0668 31.1588 51.067 31.1589C51.0673 31.1592 51.0677 31.1597 51.0683 31.1604C51.0694 31.1616 51.0711 31.1635 51.0733 31.166C51.0778 31.171 51.0844 31.1784 51.0931 31.1882C51.1106 31.2078 51.1366 31.2369 51.1705 31.2749C51.2384 31.3509 51.3382 31.4626 51.4661 31.6055C51.7219 31.8914 52.0902 32.3024 52.5403 32.8031C53.4404 33.8043 54.6683 35.1648 55.9788 36.6012C58.5826 39.4552 61.5629 42.6647 62.9184 43.9094L64.2711 42.4363C62.9964 41.2657 60.0858 38.1353 57.4563 35.2532C56.1501 33.8215 54.9256 32.4648 54.0276 31.466C53.5787 30.9666 53.2115 30.5568 52.9565 30.2719C52.8291 30.1294 52.7297 30.0182 52.6622 29.9427C52.6285 29.9049 52.6027 29.8761 52.5854 29.8567C52.5768 29.847 52.5702 29.8396 52.5659 29.8348C52.5637 29.8323 52.5621 29.8305 52.561 29.8293C52.5604 29.8286 52.56 29.8282 52.5598 29.8279C52.5596 29.8277 52.5595 29.8276 52.5595 29.8276C52.5594 29.8275 52.5594 29.8275 51.813 30.4929ZM62.9179 43.909C63.3162 44.2751 63.5187 44.8251 63.4916 45.4988C63.4642 46.1797 63.1991 46.9123 62.7583 47.497C62.3183 48.0805 61.757 48.4506 61.1701 48.5436C60.6092 48.6325 59.8654 48.4938 58.9772 47.7483L57.6913 49.2801C58.9335 50.3228 60.2439 50.7153 61.4831 50.519C62.6964 50.3267 63.6811 49.5952 64.3552 48.7011C65.0284 47.8082 65.4454 46.6873 65.49 45.5793C65.5349 44.4641 65.1994 43.2897 64.2716 42.4367L62.9179 43.909ZM59.0086 47.7757C57.7592 46.6349 55.1049 43.99 52.743 41.6093C51.5664 40.4234 50.4692 39.3098 49.6659 38.4927C49.2643 38.0841 48.9363 37.7497 48.7088 37.5175C48.595 37.4014 48.5063 37.3109 48.4461 37.2494C48.416 37.2187 48.3931 37.1952 48.3776 37.1794C48.3699 37.1715 48.3641 37.1655 48.3602 37.1616C48.3582 37.1596 48.3568 37.1581 48.3558 37.1571C48.3553 37.1566 48.3549 37.1562 48.3547 37.156C48.3546 37.1558 48.3545 37.1557 48.3544 37.1557C48.3544 37.1556 48.3543 37.1556 47.6393 37.8547C46.9243 38.5538 46.9243 38.5539 46.9244 38.5539C46.9245 38.554 46.9246 38.5541 46.9247 38.5542C46.925 38.5545 46.9253 38.5549 46.9258 38.5554C46.9268 38.5564 46.9283 38.5579 46.9303 38.56C46.9343 38.564 46.9402 38.57 46.948 38.578C46.9635 38.5939 46.9866 38.6175 47.0169 38.6484C47.0773 38.7102 47.1663 38.801 47.2804 38.9174C47.5085 39.1502 47.8372 39.4853 48.2396 39.8947C49.0443 40.7133 50.1438 41.8292 51.3231 43.0179C53.6728 45.3863 56.366 48.0712 57.66 49.2526L59.0086 47.7757ZM58.6437 48.912C58.2969 49.7869 57.4154 51.2525 56.2374 52.1048C55.6646 52.5191 55.0704 52.7541 54.4628 52.7613C53.8676 52.7682 53.142 52.5583 52.2888 51.8697L51.0328 53.4261C52.1795 54.3516 53.3451 54.7745 54.4862 54.7611C55.6148 54.7479 56.602 54.3095 57.4096 53.7252C58.9923 52.5802 60.0672 50.7482 60.5029 49.6491L58.6437 48.912ZM52.3351 51.9095C51.0808 50.7641 49.1436 48.8678 47.5094 47.2468C46.6946 46.4387 45.959 45.7028 45.4271 45.1689C45.1611 44.902 44.9462 44.6857 44.7978 44.5361C44.7236 44.4614 44.666 44.4033 44.6271 44.364C44.6076 44.3443 44.5928 44.3293 44.5828 44.3193C44.5778 44.3143 44.5741 44.3105 44.5716 44.308C44.5704 44.3067 44.5694 44.3058 44.5688 44.3051C44.5685 44.3048 44.5683 44.3046 44.5681 44.3044C44.568 44.3044 44.568 44.3043 44.568 44.3043C44.5679 44.3042 44.5679 44.3042 43.857 45.0075C43.146 45.7107 43.146 45.7107 43.1461 45.7108C43.1461 45.7108 43.1462 45.7109 43.1463 45.711C43.1465 45.7112 43.1467 45.7114 43.147 45.7118C43.1477 45.7124 43.1487 45.7134 43.15 45.7147C43.1526 45.7173 43.1564 45.7212 43.1614 45.7263C43.1716 45.7365 43.1866 45.7517 43.2063 45.7716C43.2456 45.8113 43.3036 45.8697 43.3782 45.9449C43.5274 46.0953 43.7433 46.3126 44.0103 46.5805C44.5442 47.1164 45.2826 47.8552 46.1009 48.6668C47.7328 50.2855 49.6975 52.2094 50.9865 53.3864L52.3351 51.9095ZM52.254 53.155C51.4011 54.9883 50.2992 56.1239 49.2277 56.5737C48.2312 56.992 47.1082 56.8846 45.9146 55.8779L44.6252 57.4067C46.3227 58.8385 48.2321 59.1607 50.0018 58.4178C51.6964 57.7065 53.0943 56.0902 54.0674 53.9987L52.254 53.155ZM45.9125 55.8761C44.9448 55.0646 43.704 53.8315 42.6874 52.7801C42.1831 52.2586 41.7411 51.7893 41.4253 51.4505C41.2675 51.2811 41.1413 51.1446 41.0549 51.0506C41.0117 51.0036 40.9784 50.9673 40.956 50.9429C40.9449 50.9307 40.9364 50.9214 40.9308 50.9153C40.9281 50.9123 40.926 50.91 40.9246 50.9085C40.924 50.9078 40.9235 50.9072 40.9232 50.9069C40.923 50.9067 40.9229 50.9066 40.9229 50.9066C40.9228 50.9065 40.9228 50.9065 40.9228 50.9065C40.9228 50.9065 40.9228 50.9065 40.1833 51.5797C39.4438 52.2528 39.4438 52.2528 39.4439 52.2529C39.4439 52.2529 39.4439 52.253 39.444 52.253C39.4441 52.2532 39.4443 52.2534 39.4445 52.2536C39.445 52.2541 39.4456 52.2548 39.4464 52.2557C39.448 52.2575 39.4504 52.26 39.4535 52.2634C39.4596 52.2701 39.4686 52.28 39.4804 52.2929C39.5039 52.3186 39.5385 52.3563 39.583 52.4047C39.6721 52.5015 39.8012 52.6413 39.9623 52.8141C40.2843 53.1596 40.7349 53.6381 41.2496 54.1704C42.2709 55.2265 43.5735 56.5248 44.6274 57.4086L45.9125 55.8761ZM45.2899 56.9187C44.827 58.155 43.9355 59.1459 42.9433 59.6445C41.9769 60.1301 40.9481 60.1442 40.0206 59.526L38.9113 61.1901C40.5271 62.2672 42.3351 62.1884 43.8413 61.4316C45.3218 60.6877 46.5389 59.2866 47.1629 57.62L45.2899 56.9187ZM40.0224 59.5272C39.3164 59.0544 38.3554 58.3531 37.5602 57.7617C37.165 57.4677 36.8147 57.2038 36.5634 57.0135C36.4377 56.9184 36.3369 56.8417 36.2676 56.7889C36.233 56.7625 36.2062 56.7421 36.1882 56.7283C36.1792 56.7214 36.1723 56.7162 36.1678 56.7127C36.1655 56.711 36.1638 56.7097 36.1627 56.7088C36.1622 56.7084 36.1618 56.7081 36.1615 56.7079C36.1614 56.7078 36.1613 56.7077 36.1612 56.7077C36.1612 56.7077 36.1612 56.7077 36.1612 56.7076C36.1612 56.7076 36.1612 56.7076 35.5532 57.5016C34.9452 58.2955 34.9452 58.2955 34.9452 58.2956C34.9453 58.2956 34.9453 58.2956 34.9453 58.2957C34.9454 58.2957 34.9456 58.2958 34.9457 58.2959C34.9461 58.2962 34.9466 58.2966 34.9472 58.2971C34.9484 58.298 34.9503 58.2994 34.9527 58.3013C34.9576 58.305 34.9647 58.3105 34.974 58.3176C34.9927 58.3319 35.0202 58.3528 35.0555 58.3797C35.1262 58.4336 35.2287 58.5115 35.3561 58.608C35.6108 58.8009 35.9657 59.0682 36.3666 59.3664C37.1637 59.9594 38.159 60.6863 38.9095 61.1889L40.0224 59.5272ZM25.9976 10.3683C28.0065 12.5145 29.4628 13.1682 30.8228 13.7555C32.0609 14.2902 33.1757 14.7518 34.7993 16.497L36.2636 15.1347C34.3656 13.0945 32.9589 12.4995 31.6157 11.9194C30.3943 11.392 29.2095 10.873 27.4577 9.00153L25.9976 10.3683ZM16.328 39.8188C15.304 38.7247 14.8333 37.7838 14.5943 36.9183C14.3461 36.0193 14.3312 35.1612 14.2903 34.1089C14.2504 33.0817 14.1837 31.9169 13.7482 30.6294C13.3097 29.3326 12.5191 27.9698 11.111 26.4654L9.65086 27.8322C10.8947 29.1611 11.5198 30.2831 11.8537 31.2701C12.1906 32.2665 12.2529 33.1846 12.2918 34.1865C12.3298 35.1633 12.3434 36.2807 12.6664 37.4507C12.9988 38.6543 13.6421 39.876 14.8679 41.1855L16.328 39.8188ZM19.8612 40.621C18.2431 38.8317 15.5471 38.7525 13.8739 40.5092L15.3222 41.8885C16.1705 40.9978 17.5178 41.0115 18.3778 41.9625L19.8612 40.621ZM13.8851 40.4977L12.0808 42.3323L13.5068 43.7347L15.311 41.9L13.8851 40.4977ZM12.0697 42.3438C10.4544 44.0398 10.3886 46.7972 11.9926 48.5409L13.4646 47.1869C12.5905 46.2368 12.6117 44.6747 13.5179 43.7232L12.0697 42.3438ZM11.9869 48.5347C13.6133 50.3332 16.3262 50.3689 17.9898 48.6529L16.5538 47.2608C15.6958 48.1458 14.3219 48.135 13.4703 47.1932L11.9869 48.5347ZM17.989 48.6537L19.7715 46.819L18.337 45.4253L16.5546 47.26L17.989 48.6537ZM19.7723 46.8182C21.4091 45.1298 21.4207 42.3763 19.8671 40.6276L18.3719 41.9559C19.2529 42.9475 19.221 44.5135 18.3363 45.4261L19.7723 46.8182ZM27.3607 42.3395C25.7426 40.5502 23.0466 40.471 21.3734 42.2277L22.8217 43.6071C23.67 42.7163 25.0173 42.73 25.8773 43.681L27.3607 42.3395ZM21.3761 42.2249L16.1373 47.6823L17.5802 49.0673L22.819 43.6099L21.3761 42.2249ZM16.1346 47.6852C14.5193 49.3811 14.4535 52.1385 16.0576 53.8823L17.5295 52.5283C16.6555 51.5781 16.6766 50.016 17.5829 49.0645L16.1346 47.6852ZM16.0518 53.876C17.6783 55.6746 20.3911 55.7102 22.0547 53.9942L20.6187 52.6021C19.7607 53.4871 18.3869 53.4763 17.5353 52.5346L16.0518 53.876ZM22.0581 53.9907L27.2751 48.5565L25.8324 47.1714L20.6153 52.6056L22.0581 53.9907ZM27.2779 48.5536C28.9005 46.85 28.9282 44.074 27.3609 42.3398L25.8771 43.6808C26.7444 44.6405 26.7286 46.2304 25.8297 47.1742L27.2779 48.5536ZM32.279 46.8279C30.6625 45.01 27.9671 44.9294 26.2923 46.657L27.7282 48.0491C28.575 47.1757 29.9228 47.1879 30.7844 48.1569L32.279 46.8279ZM26.288 46.6614L21.484 51.6776L22.9284 53.0609L27.7325 48.0447L26.288 46.6614ZM21.4942 51.6671C19.8364 53.3481 19.788 56.1058 21.35 57.8639L22.8451 56.5355C21.9724 55.5532 22.011 53.9914 22.9182 53.0714L21.4942 51.6671ZM21.35 57.8639C22.945 59.6592 25.6626 59.7624 27.3589 58.0116L25.9225 56.62C25.0538 57.5166 23.6847 57.4805 22.8451 56.5355L21.35 57.8639ZM27.3629 58.0075L32.1452 53.0145L30.7008 51.6311L25.9185 56.6241L27.3629 58.0075ZM32.135 53.025C33.7928 51.3439 33.8412 48.5863 32.2793 46.8282L30.7841 48.1565C31.6568 49.1388 31.6182 50.7007 30.711 51.6206L32.135 53.025ZM35.4036 53.0919C33.7795 51.2959 31.0567 51.2508 29.4104 53.0096L30.8706 54.3763C31.7023 53.4877 33.0662 53.489 33.9202 54.4334L35.4036 53.0919ZM29.4227 52.9967L28.1837 54.274L29.6192 55.6665L30.8583 54.3892L29.4227 52.9967ZM28.1773 54.2806C26.5541 55.9848 26.5256 58.7423 28.122 60.4777L29.5939 59.1237C28.7122 58.1652 28.7272 56.6032 29.6255 55.6599L28.1773 54.2806ZM28.1163 60.4714C29.7451 62.2726 32.4679 62.3074 34.1312 60.5305L32.6711 59.1638C31.8128 60.0807 30.4489 60.0691 29.5997 59.13L28.1163 60.4714ZM34.1187 60.5436L35.336 59.2896L33.9009 57.8966L32.6836 59.1506L34.1187 60.5436ZM35.3485 59.2764C36.9422 57.5739 36.9705 54.8256 35.4038 53.0921L33.92 54.4331C34.788 55.3936 34.7728 56.9648 33.8884 57.9097L35.3485 59.2764ZM59.0963 31.2351C57.0977 31.6776 55.9819 31.597 55.1454 31.318C54.2437 31.0172 53.5831 30.4803 52.372 29.6638L51.2539 31.3221C52.2818 32.0151 53.2732 32.8019 54.5127 33.2152C55.8173 33.6504 57.3318 33.6742 59.5286 33.1878L59.0963 31.2351ZM21.3606 1.68337L27.7394 8.49815L29.1996 7.13141L22.8207 0.31663L21.3606 1.68337ZM27.7394 7.13141L7.48081 28.7745L8.94095 30.1412L29.1996 8.49815L27.7394 7.13141ZM8.94095 28.7745L2.5621 21.9597L1.10196 23.3265L7.48081 30.1412L8.94095 28.7745ZM2.5621 23.3265L22.8207 1.68337L21.3606 0.31663L1.10196 21.9597L2.5621 23.3265ZM81.102 21.7425L74.7231 28.5573L76.1833 29.924L82.5621 23.1092L81.102 21.7425ZM76.1833 28.5573L56.3397 7.35754L54.8795 8.72428L74.7231 29.924L76.1833 28.5573ZM56.3397 8.72428L62.7185 1.9095L61.2584 0.542759L54.8795 7.35754L56.3397 8.72428ZM61.2584 1.9095L81.102 23.1092L82.5621 21.7425L62.7185 0.542759L61.2584 1.9095Z" fill="white"/>
</svg>
