<svg width="75" height="75" viewBox="0 0 75 75" fill="none" xmlns="http://www.w3.org/2000/svg">
<path d="M46.0437 74.9996C44.4052 74.9996 42.8642 74.2967 41.3622 73.5939C39.9968 72.9691 38.7094 72.3834 37.4805 72.3834C36.2516 72.3834 34.9642 72.9691 33.5988 73.5939C31.6676 74.4725 29.678 75.3901 27.4933 74.8044C25.3086 74.2187 24.0407 72.4225 22.8118 70.7044C21.934 69.4744 21.1148 68.3225 20.0614 67.6977C19.0081 67.073 17.5841 66.9558 16.0821 66.7996C13.9755 66.6044 11.7908 66.3896 10.1913 64.7887C8.59174 63.1878 8.37717 61.0011 8.18211 58.8925C8.04556 57.3892 7.90902 55.9835 7.28482 54.9097C6.66062 53.8359 5.50975 53.0159 4.28086 52.1569C2.5448 50.9269 0.769733 49.6578 0.184545 47.4712C-0.400642 45.2845 0.516152 43.2931 1.39393 41.3602C2.01813 39.9936 2.60332 38.705 2.60332 37.475C2.60332 36.245 2.01813 34.9565 1.39393 33.5898C0.535658 31.696 -0.381136 29.7046 0.223558 27.5179C0.808745 25.3313 2.60332 24.0622 4.31987 22.8322C5.54876 21.9537 6.69963 21.1337 7.32383 20.0794C7.94803 19.0056 8.06507 17.5999 8.22112 16.0965C8.41618 13.988 8.63075 11.8013 10.2303 10.2004C11.8298 8.59943 14.0145 8.38467 16.1212 8.18944C17.6231 8.05277 19.0276 7.9161 20.1004 7.29134C21.1733 6.66659 21.9925 5.51469 22.8508 4.28469C24.0797 2.54708 25.3476 0.770422 27.5323 0.184711C29.717 -0.401001 31.7066 0.516614 33.6378 1.39518C35.0032 2.01994 36.2906 2.60565 37.5195 2.60565C38.7484 2.60565 40.0358 2.01994 41.4013 1.39518C43.3324 0.516614 45.322 -0.401001 47.5067 0.184711C49.6914 0.770422 50.9593 2.5666 52.1882 4.28469C53.066 5.51469 53.8853 6.66659 54.9386 7.29134C56.0114 7.9161 57.4159 8.03325 58.9179 8.18944C61.0245 8.38467 63.2092 8.59943 64.8088 10.2004C66.4083 11.8013 66.6228 13.988 66.8179 16.0965C66.9544 17.5999 67.091 19.0056 67.7152 20.0794C68.3394 21.1532 69.4903 21.9732 70.7191 22.8322C72.4357 24.0622 74.2303 25.3313 74.8155 27.5179C75.4006 29.7046 74.4839 31.696 73.6061 33.6288C72.9819 34.9955 72.3967 36.2841 72.3967 37.5141C72.3967 38.7441 72.9819 40.0326 73.6061 41.3993C74.4839 43.3321 75.4006 45.3235 74.8155 47.5102C74.2303 49.6969 72.4357 50.9659 70.7191 52.1959C69.4903 53.0745 68.3394 53.8945 67.7152 54.9487C67.091 56.0225 66.9739 57.4283 66.8179 58.9316C66.6228 61.0401 66.4083 63.2268 64.8088 64.8277C63.2092 66.4287 61.0245 66.6435 58.9179 66.8387C57.4159 66.9754 56.0114 67.112 54.9386 67.7368C53.8657 68.3615 53.0465 69.5134 52.1882 70.7434C50.9593 72.481 49.6914 74.2577 47.5067 74.8434C46.98 74.941 46.5119 74.9996 46.0437 74.9996ZM37.4805 70.0406C39.2166 70.0406 40.8161 70.763 42.3376 71.4658C43.9566 72.2077 45.4781 72.9106 46.863 72.5396C48.2284 72.1687 49.2038 70.802 50.2376 69.3377C51.2129 67.9515 52.2272 66.5458 53.7292 65.6673C55.2312 64.7887 56.9672 64.6325 58.6643 64.4763C60.4394 64.3006 62.1169 64.1444 63.1117 63.1487C64.1065 62.153 64.2626 60.474 64.4381 58.6973C64.5942 57.0183 64.7502 55.2806 65.628 53.7578C66.5058 52.2545 67.9298 51.2392 69.2952 50.263C70.7387 49.2283 72.1236 48.2521 72.4942 46.8854C72.8648 45.5188 72.1626 43.9764 71.4214 42.3559C70.7191 40.8136 69.9974 39.2321 69.9974 37.4945C69.9974 35.7569 70.7191 34.156 71.4214 32.6331C72.1626 31.0127 72.8648 29.4898 72.4942 28.1036C72.1236 26.737 70.7582 25.7608 69.2952 24.726C67.9298 23.7498 66.5058 22.7346 65.628 21.2313C64.7502 19.728 64.5942 17.9903 64.4381 16.2918C64.2626 14.5151 64.1065 12.8361 63.1117 11.8404C62.0974 10.8447 60.4394 10.6689 58.6643 10.5128C56.9867 10.3566 55.2507 10.2004 53.7292 9.32181C52.2272 8.44324 51.2129 7.01801 50.2376 5.65135C49.2038 4.2066 48.2284 2.82041 46.863 2.44946C45.4976 2.07851 43.9566 2.78137 42.3376 3.52327C40.7966 4.22612 39.2166 4.9485 37.4805 4.9485C35.7444 4.9485 34.1449 4.22612 32.6234 3.52327C31.0044 2.78137 29.4829 2.07851 28.098 2.44946C26.7326 2.82041 25.7572 4.18707 24.7234 5.65135C23.7481 7.03754 22.7338 8.44324 21.2318 9.32181C19.7298 10.2004 17.9938 10.3566 16.2967 10.5128C14.5216 10.6885 12.8441 10.8447 11.8493 11.8404C10.8545 12.8361 10.6789 14.5151 10.5229 16.2918C10.3668 17.9708 10.2108 19.7084 9.33298 21.2313C8.4552 22.7346 7.03124 23.7498 5.6658 24.726C4.22234 25.7608 2.8374 26.737 2.46678 28.1036C2.09616 29.4703 2.79838 31.0127 3.53962 32.6331C4.24185 34.1755 4.96358 35.7569 4.96358 37.4945C4.96358 39.2321 4.24185 40.8331 3.53962 42.3559C2.79838 43.9764 2.09616 45.4993 2.46678 46.8854C2.8374 48.2521 4.20283 49.2283 5.6658 50.263C7.05075 51.2392 8.4552 52.2545 9.33298 53.7578C10.2108 55.2611 10.3668 56.9987 10.5229 58.6973C10.6984 60.474 10.8545 62.153 11.8493 63.1487C12.8441 64.1444 14.5216 64.3201 16.2967 64.4763C17.9742 64.6325 19.7103 64.7887 21.2318 65.6673C22.7338 66.5458 23.7481 67.9711 24.7234 69.3377C25.7572 70.7825 26.7326 72.1687 28.098 72.5396C29.4634 72.9106 31.0044 72.2077 32.6234 71.4658C34.1449 70.763 35.7444 70.0406 37.4805 70.0406Z" fill="white"/>
<path d="M37.4805 64.4568C22.6362 64.4568 10.5619 52.3716 10.5619 37.5141C10.5619 22.6565 22.6362 10.5713 37.4805 10.5713C52.3248 10.5713 64.3991 22.6565 64.3991 37.5141C64.3991 52.3716 52.3248 64.4568 37.4805 64.4568ZM37.4805 12.9142C23.9237 12.9142 12.9026 23.9451 12.9026 37.5141C12.9026 51.083 23.9237 62.1139 37.4805 62.1139C51.0373 62.1139 62.0584 51.083 62.0584 37.5141C62.0584 23.9451 51.0373 12.9142 37.4805 12.9142Z" fill="white"/>
<path d="M40.8746 53.8359C35.6274 53.8359 28.8002 53.133 24.5479 52.4107C23.9822 52.313 23.5725 51.8249 23.5725 51.2588V35.8155C23.5725 35.2884 23.9237 34.8198 24.4308 34.6831C31.7457 32.6917 32.6039 24.8236 32.6039 19.0641C32.6039 18.7127 32.76 18.3808 33.0331 18.1465C33.3062 17.9318 33.6768 17.8342 34.0084 17.9122C36.6417 18.498 38.5338 19.7084 39.6847 21.5437C42.0059 25.2922 40.6795 30.6808 39.5091 35.4445C39.2361 36.5574 38.9825 37.6312 38.7679 38.6074C38.6314 39.2321 38.0267 39.6421 37.383 39.525C36.7588 39.3883 36.3491 38.7831 36.4662 38.1388C36.6807 37.1236 36.9343 36.0107 37.2269 34.8784C38.2802 30.5636 39.4896 25.6827 37.6756 22.7932C37.0709 21.8365 36.1541 21.1141 34.9057 20.626C34.7886 25.1555 33.8523 33.9412 25.8938 36.6745V50.263C35.1593 51.7273 45.0879 51.7664 46.3753 50.9854C47.4287 49.6578 50.5887 36.7917 49.5939 34.8198C49.4378 34.5269 48.0334 33.785 43.3714 33.9998C42.7277 34.0193 42.1815 33.5312 42.1425 32.8869C42.123 32.2427 42.6106 31.696 43.2543 31.6569C48.1504 31.4422 50.8423 32.106 51.681 33.7655C53.1635 36.7136 49.6134 51.0245 47.9553 52.684C47.1556 53.5235 44.3662 53.8359 40.8746 53.8359Z" fill="white"/>
</svg>
