<svg width="63" height="80" viewBox="0 0 63 80" fill="none" xmlns="http://www.w3.org/2000/svg">
<path d="M55.1654 16.667H56.1654V15.667H55.1654V16.667ZM55.1654 71.667V72.667H56.1654V71.667H55.1654ZM8.4987 71.667H7.4987V72.667H8.4987V71.667ZM8.4987 16.667V15.667H7.4987V16.667H8.4987ZM38.4987 8.33366H37.4987V9.33366H38.4987V8.33366ZM25.1654 8.33366V9.33366H26.1654V8.33366H25.1654ZM15.1654 18.3337H14.1654V19.3337H15.1654V18.3337ZM48.4987 18.3337V19.3337H49.4987V18.3337H48.4987ZM22.4987 61.667C22.4987 62.2193 22.9464 62.667 23.4987 62.667C24.051 62.667 24.4987 62.2193 24.4987 61.667H22.4987ZM28.1029 47.6878L27.6556 46.7934L27.653 46.7947L28.1029 47.6878ZM40.1654 28.3337L40.8725 27.6266C40.4819 27.236 39.8488 27.236 39.4583 27.6266L40.1654 28.3337ZM44.4583 34.0408C44.8488 34.4313 45.4819 34.4313 45.8725 34.0408C46.263 33.6502 46.263 33.0171 45.8725 32.6266L44.4583 34.0408ZM34.4583 32.6266C34.0677 33.0171 34.0677 33.6502 34.4583 34.0408C34.8488 34.4313 35.4819 34.4313 35.8725 34.0408L34.4583 32.6266ZM51.832 11.0003H58.4987V9.00033H51.832V11.0003ZM58.4987 11.0003C59.7797 11.0003 60.832 12.0526 60.832 13.3337H62.832C62.832 10.948 60.8843 9.00033 58.4987 9.00033V11.0003ZM60.832 13.3337V75.0003H62.832V13.3337H60.832ZM60.832 75.0003C60.832 76.2814 59.7797 77.3337 58.4987 77.3337V79.3337C60.8843 79.3337 62.832 77.3859 62.832 75.0003H60.832ZM58.4987 77.3337H5.16536V79.3337H58.4987V77.3337ZM5.16536 77.3337C3.88432 77.3337 2.83203 76.2814 2.83203 75.0003H0.832031C0.832031 77.3859 2.77975 79.3337 5.16536 79.3337V77.3337ZM2.83203 75.0003V13.3337H0.832031V75.0003H2.83203ZM2.83203 13.3337C2.83203 12.0526 3.88432 11.0003 5.16536 11.0003V9.00033C2.77975 9.00033 0.832031 10.948 0.832031 13.3337H2.83203ZM5.16536 11.0003H11.832V9.00033H5.16536V11.0003ZM51.832 17.667H55.1654V15.667H51.832V17.667ZM54.1654 16.667V71.667H56.1654V16.667H54.1654ZM55.1654 70.667H8.4987V72.667H55.1654V70.667ZM9.4987 71.667V16.667H7.4987V71.667H9.4987ZM8.4987 17.667H11.832V15.667H8.4987V17.667ZM43.4987 7.33366H38.4987V9.33366H43.4987V7.33366ZM39.4987 8.33366C39.4987 4.09387 36.0718 0.666992 31.832 0.666992V2.66699C34.9672 2.66699 37.4987 5.19844 37.4987 8.33366H39.4987ZM31.832 0.666992C27.5922 0.666992 24.1654 4.09387 24.1654 8.33366H26.1654C26.1654 5.19844 28.6968 2.66699 31.832 2.66699V0.666992ZM25.1654 7.33366H20.1654V9.33366H25.1654V7.33366ZM20.1654 7.33366C16.8422 7.33366 14.1654 10.0105 14.1654 13.3337H16.1654C16.1654 11.1151 17.9468 9.33366 20.1654 9.33366V7.33366ZM14.1654 13.3337V18.3337H16.1654V13.3337H14.1654ZM15.1654 19.3337H48.4987V17.3337H15.1654V19.3337ZM49.4987 18.3337V13.3337H47.4987V18.3337H49.4987ZM49.4987 13.3337C49.4987 10.0105 46.8218 7.33366 43.4987 7.33366V9.33366C45.7172 9.33366 47.4987 11.1151 47.4987 13.3337H49.4987ZM30.832 6.66699V10.0003H32.832V6.66699H30.832ZM17.7916 29.0408L27.7916 39.0408L29.2058 37.6266L19.2058 27.6266L17.7916 29.0408ZM27.7916 27.6266L17.7916 37.6266L19.2058 39.0408L29.2058 29.0408L27.7916 27.6266ZM44.1654 56.667C44.1654 58.8761 42.3745 60.667 40.1654 60.667V62.667C43.4791 62.667 46.1654 59.9807 46.1654 56.667H44.1654ZM40.1654 60.667C37.9562 60.667 36.1654 58.8761 36.1654 56.667H34.1654C34.1654 59.9807 36.8517 62.667 40.1654 62.667V60.667ZM36.1654 56.667C36.1654 54.4579 37.9562 52.667 40.1654 52.667V50.667C36.8517 50.667 34.1654 53.3533 34.1654 56.667H36.1654ZM40.1654 52.667C42.3745 52.667 44.1654 54.4579 44.1654 56.667H46.1654C46.1654 53.3533 43.4791 50.667 40.1654 50.667V52.667ZM24.4987 61.667V55.1462H22.4987V61.667H24.4987ZM24.4987 55.1462C24.4987 52.3605 26.0746 49.8292 28.5527 48.5809L27.653 46.7947C24.5062 48.3798 22.4987 51.5984 22.4987 55.1462H24.4987ZM28.5501 48.5822L36.0084 44.8531L35.114 43.0642L27.6557 46.7934L28.5501 48.5822ZM36.0084 44.8531C39.1816 43.2665 41.1654 40.0445 41.1654 36.5003H39.1654C39.1654 39.2895 37.6074 41.8175 35.114 43.0642L36.0084 44.8531ZM41.1654 36.5003V28.3337H39.1654V36.5003H41.1654ZM45.8725 32.6266L40.8725 27.6266L39.4583 29.0408L44.4583 34.0408L45.8725 32.6266ZM39.4583 27.6266L34.4583 32.6266L35.8725 34.0408L40.8725 29.0408L39.4583 27.6266Z" fill="white"/>
</svg>
