<svg width="83" height="82" viewBox="0 0 83 82" fill="none" xmlns="http://www.w3.org/2000/svg">
<path d="M1.83203 40C1.27975 40 0.832031 40.4477 0.832031 41C0.832031 41.5523 1.27975 42 1.83203 42V40ZM15.7451 42C16.2974 42 16.7451 41.5523 16.7451 41C16.7451 40.4477 16.2974 40 15.7451 40V42ZM67.919 40C67.3667 40 66.919 40.4477 66.919 41C66.919 41.5523 67.3667 42 67.919 42V40ZM81.832 42C82.3843 42 82.832 41.5523 82.832 41C82.832 40.4477 82.3843 40 81.832 40V42ZM42.832 1C42.832 0.447715 42.3843 0 41.832 0C41.2797 0 40.832 0.447715 40.832 1H42.832ZM40.832 14.913C40.832 15.4653 41.2797 15.913 41.832 15.913C42.3843 15.913 42.832 15.4653 42.832 14.913H40.832ZM42.832 67.087C42.832 66.5347 42.3843 66.087 41.832 66.087C41.2797 66.087 40.832 66.5347 40.832 67.087H42.832ZM40.832 81C40.832 81.5523 41.2797 82 41.832 82C42.3843 82 42.832 81.5523 42.832 81H40.832ZM44.6799 41.9348L45.0005 40.9876L44.9961 40.9861L44.6799 41.9348ZM39.0059 40.0435L38.6853 40.9907L38.6897 40.9922L39.0059 40.0435ZM72.1364 41C72.1364 57.7366 58.5687 71.3043 41.832 71.3043V73.3043C59.6732 73.3043 74.1364 58.8412 74.1364 41H72.1364ZM41.832 71.3043C25.0954 71.3043 11.5277 57.7366 11.5277 41H9.52768C9.52768 58.8412 23.9908 73.3043 41.832 73.3043V71.3043ZM11.5277 41C11.5277 24.2634 25.0954 10.6957 41.832 10.6957V8.69565C23.9908 8.69565 9.52768 23.1588 9.52768 41H11.5277ZM41.832 10.6957C58.5687 10.6957 72.1364 24.2634 72.1364 41H74.1364C74.1364 23.1588 59.6732 8.69565 41.832 8.69565V10.6957ZM1.83203 42H15.7451V40H1.83203V42ZM67.919 42H81.832V40H67.919V42ZM40.832 1V14.913H42.832V1H40.832ZM40.832 67.087V81H42.832V67.087H40.832ZM59.9625 41C59.9625 51.0132 51.8452 59.1304 41.832 59.1304V61.1304C52.9498 61.1304 61.9625 52.1177 61.9625 41H59.9625ZM41.832 59.1304C31.8189 59.1304 23.7016 51.0132 23.7016 41H21.7016C21.7016 52.1177 30.7143 61.1304 41.832 61.1304V59.1304ZM23.7016 41C23.7016 30.9868 31.8189 22.8696 41.832 22.8696V20.8696C30.7143 20.8696 21.7016 29.8823 21.7016 41H23.7016ZM41.832 22.8696C51.8452 22.8696 59.9625 30.9868 59.9625 41H61.9625C61.9625 29.8823 52.9498 20.8696 41.832 20.8696V22.8696ZM35.6146 44.4783V46.2174H37.6146V44.4783H35.6146ZM35.6146 46.2174C35.6146 48.6827 37.6276 50.6957 40.0929 50.6957V48.6957C38.7321 48.6957 37.6146 47.5781 37.6146 46.2174H35.6146ZM40.0929 50.6957H43.5712V48.6957H40.0929V50.6957ZM43.5712 50.6957C46.0365 50.6957 48.0494 48.6827 48.0494 46.2174H46.0494C46.0494 47.5781 44.9319 48.6957 43.5712 48.6957V50.6957ZM48.0494 46.2174V45.2391H46.0494V46.2174H48.0494ZM48.0494 45.2391C48.0494 43.3093 46.8185 41.6029 45.0005 40.9876L44.3593 42.882C45.3673 43.2232 46.0494 44.169 46.0494 45.2391H48.0494ZM44.9961 40.9861L39.3222 39.0948L38.6897 40.9922L44.3636 42.8835L44.9961 40.9861ZM39.3265 39.0963C38.3185 38.7551 37.6364 37.8093 37.6364 36.7391H35.6364C35.6364 38.669 36.8673 40.3753 38.6853 40.9907L39.3265 39.0963ZM37.6364 36.7391V35.7826H35.6364V36.7391H37.6364ZM37.6364 35.7826C37.6364 34.4218 38.7539 33.3043 40.1146 33.3043V31.3043C37.6493 31.3043 35.6364 33.3173 35.6364 35.7826H37.6364ZM40.1146 33.3043H43.5929V31.3043H40.1146V33.3043ZM43.5929 33.3043C44.9537 33.3043 46.0712 34.4218 46.0712 35.7826H48.0712C48.0712 33.3173 46.0582 31.3043 43.5929 31.3043V33.3043ZM46.0712 35.7826V37.5217H48.0712V35.7826H46.0712ZM42.832 32.3043V27.087H40.832V32.3043H42.832ZM40.832 49.6957V54.913H42.832V49.6957H40.832Z" fill="white"/>
</svg>
