<?xml version="1.0" standalone="no"?>
<!DOCTYPE svg PUBLIC "-//W3C//DTD SVG 20010904//EN"
 "http://www.w3.org/TR/2001/REC-SVG-20010904/DTD/svg10.dtd">
<svg version="1.0" xmlns="http://www.w3.org/2000/svg"
 width="700.000000pt" height="700.000000pt" viewBox="0 0 700.000000 700.000000"
 preserveAspectRatio="xMidYMid meet">
<metadata>
Created by potrace 1.14, written by Peter Selinger 2001-2017
</metadata>
<g transform="translate(0.000000,700.000000) scale(0.100000,-0.100000)"
fill="#000000" stroke="none">
<path d="M260 6283 c0 -3 15 -33 33 -66 19 -34 53 -98 77 -142 74 -138 110
-206 423 -785 167 -311 326 -605 352 -655 26 -49 60 -112 75 -140 15 -27 43
-79 62 -115 20 -36 49 -90 65 -120 17 -30 49 -91 73 -135 53 -99 90 -168 169
-313 34 -62 84 -157 113 -210 28 -53 74 -140 103 -192 28 -52 55 -102 58 -110
4 -8 18 -33 30 -55 13 -22 49 -89 81 -150 33 -60 112 -208 177 -328 66 -120
119 -220 119 -221 0 -2 19 -39 43 -82 24 -44 65 -119 92 -169 26 -49 55 -103
65 -120 9 -16 40 -74 69 -127 28 -54 62 -117 75 -140 12 -24 45 -83 71 -133
26 -49 65 -121 86 -158 22 -38 39 -70 39 -72 0 -2 37 -73 83 -157 46 -84 86
-160 90 -168 4 -8 18 -33 30 -55 13 -22 49 -89 81 -150 32 -60 86 -159 119
-220 85 -156 107 -197 167 -310 79 -150 72 -144 105 -82 15 28 40 75 55 102
15 28 49 91 75 140 26 50 74 137 105 195 123 225 321 594 333 620 4 8 18 33
30 55 13 22 49 90 81 150 32 61 66 124 76 140 9 17 38 68 62 115 40 74 261
484 353 655 18 33 52 96 75 140 24 44 56 105 73 135 16 30 46 87 67 125 21 39
49 90 62 115 14 25 49 90 78 145 29 55 56 105 60 110 4 6 29 51 54 100 26 50
51 97 56 105 5 8 55 101 111 205 125 235 159 298 241 450 36 66 84 156 108
200 23 44 55 103 70 130 15 28 44 82 65 120 21 39 50 93 65 120 25 46 85 158
150 280 24 45 63 117 125 230 12 22 50 94 85 160 35 66 66 125 70 130 4 6 38
69 75 140 37 72 71 135 75 140 4 6 31 55 60 110 29 55 64 120 78 145 78 141
92 168 92 173 0 3 -1438 5 -3195 5 -1757 0 -3195 -2 -3195 -5z"/>
</g>
</svg>
