<svg width="324" height="269" viewBox="0 0 324 269" fill="none" xmlns="http://www.w3.org/2000/svg">
<path d="M288.17 155.392C310.275 177.742 292.111 216.276 244.641 242.253C233.317 248.463 220.363 253.949 205.868 258.346C203.739 258.981 201.52 259.616 199.3 260.205C199.074 260.25 198.847 260.341 198.621 260.386C198.485 260.432 198.304 260.477 198.168 260.522C190.785 262.472 183.039 264.149 174.931 265.509C167.548 266.733 159.893 267.64 152.147 268.184C146.984 268.547 141.775 268.773 136.566 268.909C131.945 269 127.28 268.955 122.614 268.819C120.576 268.773 117.405 268.637 113.374 268.32C111.381 268.184 109.207 267.957 106.852 267.731C105.085 267.549 103.228 267.323 101.326 267.096C85.3362 265.147 63.7754 260.976 44.6606 252.453C43.1659 251.773 41.7164 251.093 40.2669 250.368C33.9256 247.239 27.9918 243.567 22.6922 239.306C8.1976 227.7 -1.26919 211.471 0.633225 188.939C5.88752 126.605 69.2562 58.1497 153.325 27.0956C216.195 3.88443 307.693 -20.1428 321.417 28.8637C337.769 87.3904 251.118 117.946 288.17 155.392Z" fill="url(#paint0_linear_147_5291)"/>
<defs>
<linearGradient id="paint0_linear_147_5291" x1="75.8337" y1="268.956" x2="714.241" y2="-410.617" gradientUnits="userSpaceOnUse">
<stop stop-color="#C8C0E9"/>
<stop offset="1" stop-color="#FAFAFA" stop-opacity="0"/>
</linearGradient>
</defs>
</svg>
