<svg width="149" height="5" viewBox="0 0 149 5" fill="none" xmlns="http://www.w3.org/2000/svg">
<path d="M1 2.5C5.90833 0.5 10.8167 0.5 15.725 2.5C20.6333 4.5 25.5417 4.5 30.45 2.5C35.3583 0.5 40.2667 0.5 45.175 2.5C50.0833 4.5 54.9917 4.5 59.9 2.5C64.8083 0.5 69.7167 0.5 74.625 2.5C79.5333 4.5 84.4417 4.5 89.35 2.5C94.2583 0.5 99.1667 0.5 104.075 2.5C108.983 4.5 113.892 4.5 118.8 2.5C123.708 0.5 128.617 0.5 133.525 2.5C138.433 4.5 143.342 4.5 148.25 2.5" stroke="#50287D" stroke-width="2"/>
</svg>
